<?xml version="1.0" encoding="utf-8"?>
<!-- Generator: Adobe Illustrator 24.0.1, SVG Export Plug-In . SVG Version: 6.00 Build 0)  -->
<svg version="1.1" id="Ebene_1" xmlns="http://www.w3.org/2000/svg" xmlns:xlink="http://www.w3.org/1999/xlink" x="0px" y="0px"
	 viewBox="0 0 160 40" style="enable-background:new 0 0 160 40;" xml:space="preserve">
<style type="text/css">
	.st0{clip-path:url(#SVGID_2_);}
	.st1{clip-path:url(#SVGID_4_);fill:#1A171C;}
</style>
<g id="Logo-text-only_1_">
	<g>
		<defs>
			<rect id="SVGID_1_" y="9" width="160" height="21.8"/>
		</defs>
		<clipPath id="SVGID_2_">
			<use xlink:href="#SVGID_1_"  style="overflow:visible;"/>
		</clipPath>
		<g class="st0">
			<defs>
				<rect id="SVGID_3_" y="9" width="160" height="21.8"/>
			</defs>
			<clipPath id="SVGID_4_">
				<use xlink:href="#SVGID_3_"  style="overflow:visible;"/>
			</clipPath>
			<path class="st1" d="M0,30.2c1,0,1.5-0.5,1.7-1.1L5.9,9h0.5l4.7,21.2h1.2v0.3H7.4v-0.3h1.2l-1.3-5.9H3l-1.2,5.9h1.2v0.3H0V30.2z
				 M3.1,24h4.2l-2.1-9.6L3.1,24z"/>
			<path class="st1" d="M20.5,30.2V9.6h-1.2V9.3h4.8c3.3,0,5.4,2.2,5.4,4.8v0.6c0,2.8-2.5,4.1-4.5,4.7c2.1,0.5,4.8,1.8,4.8,4.7v1.5
				c0,2.7-2.2,4.8-5.4,4.8h-5.1v-0.3H20.5z M27.1,14.1c0-2.5-1.4-4.5-3-4.5h-1.2v9.7h1.2c1.7,0,3-1.8,3-4.5V14.1z M27.4,24.1
				c0-2.7-1.7-4.5-3.3-4.5h-1.2v10.6h1.5c1.7,0,3-2,3-4.5V24.1z"/>
			<path class="st1" d="M38.4,13.8c0-2.7,2-4.8,4.8-4.8c2.8,0,4.8,2.2,4.8,4.8v12.1c0,2.7-2,4.8-4.8,4.8c-2.8,0-4.8-2.2-4.8-4.8
				V13.8z M45.6,13.8c0-2.5-0.9-4.5-2.4-4.5c-1.5,0-2.4,2-2.4,4.5v12.1c0,2.5,0.9,4.5,2.4,4.5c1.5,0,2.4-2,2.4-4.5V13.8z"/>
			<path class="st1" d="M65.9,25.9c0,2.7-1.6,4.8-3.6,4.8c-2.8,0-4.8-2.2-4.8-4.8V9.6h-1.2V9.3h4.8v0.3h-1.2v16.3
				c0,2.5,0.9,4.5,2.4,4.5c1.8,0,3.3-2,3.3-4.5V9.6h-1.2V9.3h2.9v0.3c-1,0-1.4,0.4-1.4,0.9V25.9z"/>
			<path class="st1" d="M85.3,9.3v4.2H85c0-2.2-0.9-3.9-2-3.9h-2v20.6h1.2v0.3h-4.8v-0.3h1.2V9.6h-2c-1.1,0-2,1.8-2,3.9h-0.3V9.3
				H85.3z"/>
			<path class="st1" d="M106,13.5h-0.3c0-2.2-0.9-3.9-2-3.9h-2.9v10.1h1.8c0.7,0,1.2-1.1,1.2-2.4h0.3v5.1h-0.3
				c0-1.3-0.5-2.4-1.2-2.4h-1.8v10.1h2.9c1.1,0,2-1.8,2-3.9h0.3v4.2h-8.8v-0.3h1.2V9.6h-1.2V9.3h8.8V13.5z"/>
			<path class="st1" d="M115.3,30.2V9.6h-1.2V9.3h4.8c3.3,0,5.4,2.2,5.4,4.8v11.5c0,2.7-2.2,4.8-5.4,4.8h-4.8v-0.3H115.3z M122,14.1
				c0-2.5-1.4-4.5-3-4.5h-1.2v20.6h1.2c1.7,0,3-2,3-4.5V14.1z"/>
			<path class="st1" d="M141.6,13.5h-0.3c0-2.2-0.9-3.9-2-3.9h-2.9v10.1h1.8c0.7,0,1.2-1.1,1.2-2.4h0.3v5.1h-0.3
				c0-1.3-0.5-2.4-1.2-2.4h-1.8v10.1h2.9c1.1,0,2-1.8,2-3.9h0.3v4.2h-8.8v-0.3h1.2V9.6h-1.2V9.3h8.8V13.5z"/>
			<path class="st1" d="M152.7,9.3l5.6,15.1V9.6h-1.2V9.3h2.9v0.3c-1,0-1.4,0.4-1.4,0.9v20h-0.5l-7-18.9v18.6h1.2v0.3h-2.9v-0.3
				c1,0,1.4-0.4,1.4-0.9V10.5c0-0.5-0.4-0.9-1.4-0.9V9.3H152.7z"/>
		</g>
	</g>
</g>
</svg>
