<?xml version="1.0" encoding="UTF-8"?>
<svg width="78px" height="38px" viewBox="0 0 78 38" version="1.1" xmlns="http://www.w3.org/2000/svg" xmlns:xlink="http://www.w3.org/1999/xlink">
    <!-- Generator: Sketch 51.3 (57544) - http://www.bohemiancoding.com/sketch -->
    <title>dhl</title>
    <desc>Created with Sketch.</desc>
    <defs></defs>
    <g id="Page-1" stroke="none" stroke-width="1" fill="none" fill-rule="evenodd">
        <g id="Desktop-HD-Copy-3" transform="translate(-630.000000, -2565.000000)" fill-rule="nonzero">
            <g id="FOOTER" transform="translate(0.000000, 2268.000000)">
                <g id="Shop-Service" transform="translate(630.000000, 107.000000)">
                    <g id="dhl" transform="translate(0.000000, 190.000000)">
                        <rect id="Rectangle" fill="#FFFFFF" x="0" y="0" width="78" height="38"></rect>
                        <rect id="Rectangle" fill="#FFCC07" x="2" y="2" width="74" height="34"></rect>
                        <g transform="translate(6.000000, 14.000000)" fill="#D80613" id="Shape">
                            <path d="M11.4705882,0.374705882 L9.39058824,3.19647059 L20.6470588,3.19647059 C21.2205882,3.19647059 21.2129412,3.41058824 20.9376471,3.79294118 C20.6623529,4.17529412 20.1729412,4.84058824 19.8823529,5.23823529 C19.7370588,5.43705882 19.4694118,5.79647059 20.3488235,5.79647059 L25.0058824,5.79647059 L26.3747059,3.93058824 C27.2235294,2.77588235 26.4511765,0.374705882 23.4076471,0.374705882 L11.4705882,0.374705882 Z M8.51117647,9.56647059 L12.6864706,3.9 L17.8635294,3.9 C18.4370588,3.9 18.4294118,4.11411765 18.1464706,4.49647059 L17.0911765,5.93411765 C16.9458824,6.13294118 16.6782353,6.49235294 17.5576471,6.49235294 L24.4705882,6.49235294 C23.1385799,8.3839921 20.9798392,9.52166837 18.6664706,9.55117647 L8.51117647,9.56647059 Z M32.4005882,6.50764706 L30.1064706,9.56647059 L24.1417647,9.56647059 L26.4358824,6.50764706 L32.4005882,6.50764706 Z M41.5770588,5.81176471 L26.9482353,5.81176471 L30.94,0.39 L36.9047059,0.39 L34.6105882,3.49470588 L37.2717647,3.49470588 L39.5658824,0.39 L45.5305882,0.39 L41.5770588,5.81176471 Z M41.0647059,6.50764706 L38.8088235,9.56647059 L32.8058824,9.56647059 L35.1,6.50764706 L41.0647059,6.50764706 Z M0,7.70823529 L8.78647059,7.70823529 L8.31235294,8.35823529 L0,8.35823529 L0,7.70823529 Z M0,6.49235294 L9.68117647,6.49235294 L9.19941176,7.14235294 L0,7.14235294 L0,6.49235294 Z M0,8.91647059 L7.89941176,8.91647059 L7.41764706,9.56647059 L0,9.56647059 L0,8.91647059 Z M65,8.35823529 L56.2441176,8.35823529 L56.7258824,7.70823529 L65,7.70823529 L65,8.35823529 Z M65,9.56647059 L55.3570588,9.56647059 L55.8311765,8.91647059 L65,8.91647059 L65,9.56647059 Z M57.6129412,6.50764706 L65,6.50764706 L65,7.15764706 L57.1388235,7.15764706 L57.6129412,6.50764706 Z M53.7894118,0.39 L49.7976471,5.81176471 L43.4811765,5.81176471 L47.4729412,0.39 L53.7894118,0.39 Z M42.9611765,6.50764706 L42.3188235,7.38705882 C41.5541176,8.40411765 42.2270588,9.58176471 44.6741176,9.58176471 L54.2941176,9.58176471 L56.5882353,6.52294118 L42.9611765,6.50764706 Z"></path>
                        </g>
                    </g>
                </g>
            </g>
        </g>
    </g>
</svg>