<?xml version="1.0" encoding="UTF-8"?>
<svg width="78px" height="38px" viewBox="0 0 78 38" version="1.1" xmlns="http://www.w3.org/2000/svg" xmlns:xlink="http://www.w3.org/1999/xlink">
    <!-- Generator: Sketch 51.3 (57544) - http://www.bohemiancoding.com/sketch -->
    <title>hermes</title>
    <desc>Created with Sketch.</desc>
    <defs>
        <linearGradient x1="10.9394314%" y1="69.8795181%" x2="100.432633%" y2="20.7831325%" id="linearGradient-1">
            <stop stop-color="#EEF7FE" offset="0%"></stop>
            <stop stop-color="#1E97D0" offset="100%"></stop>
        </linearGradient>
        <linearGradient x1="1.78571429%" y1="14.4578313%" x2="103.928571%" y2="98.4939759%" id="linearGradient-2">
            <stop stop-color="#D6E9F7" offset="0%"></stop>
            <stop stop-color="#48A2D7" offset="100%"></stop>
        </linearGradient>
        <linearGradient x1="16.5461121%" y1="72.1362229%" x2="100.542495%" y2="10.5263158%" id="linearGradient-3">
            <stop stop-color="#D4EAF7" offset="0%"></stop>
            <stop stop-color="#1493C5" offset="100%"></stop>
        </linearGradient>
        <linearGradient x1="-8.02919708%" y1="4.64396285%" x2="94.1605839%" y2="106.19195%" id="linearGradient-4">
            <stop stop-color="#D9EBF7" offset="0%"></stop>
            <stop stop-color="#318ABB" offset="100%"></stop>
        </linearGradient>
        <linearGradient x1="29.9455535%" y1="60.1226994%" x2="100.544465%" y2="2.45398773%" id="linearGradient-5">
            <stop stop-color="#9DC4DF" offset="0%"></stop>
            <stop stop-color="#137EAB" offset="100%"></stop>
        </linearGradient>
        <linearGradient x1="-8.3032491%" y1="4.29447853%" x2="93.8628159%" y2="106.441718%" id="linearGradient-6">
            <stop stop-color="#DEEEF8" offset="0%"></stop>
            <stop stop-color="#3586B3" offset="100%"></stop>
        </linearGradient>
        <linearGradient x1="50%" y1="101.230769%" x2="50%" y2="-0.923076923%" id="linearGradient-7">
            <stop stop-color="#646368" offset="0%"></stop>
            <stop stop-color="#646368" offset="100%"></stop>
        </linearGradient>
        <linearGradient x1="50%" y1="100.625%" x2="50%" y2="-0.3125%" id="linearGradient-8">
            <stop stop-color="#636267" offset="0%"></stop>
            <stop stop-color="#646368" offset="100%"></stop>
        </linearGradient>
        <linearGradient x1="50%" y1="100%" x2="50%" y2="0%" id="linearGradient-9">
            <stop stop-color="#6B6A6F" offset="0%"></stop>
            <stop stop-color="#EAEBED" offset="100%"></stop>
        </linearGradient>
    </defs>
    <g id="Page-1" stroke="none" stroke-width="1" fill="none" fill-rule="evenodd">
        <g id="Desktop-HD-Copy-3" transform="translate(-713.000000, -2565.000000)" fill-rule="nonzero">
            <g id="FOOTER" transform="translate(0.000000, 2268.000000)">
                <g id="Shop-Service" transform="translate(630.000000, 107.000000)">
                    <g id="hermes" transform="translate(83.000000, 190.000000)">
                        <rect id="Rectangle" fill="#FFFFFF" x="0" y="0" width="78" height="38"></rect>
                        <g transform="translate(7.000000, 13.000000)">
                            <polygon id="path2588" fill="url(#linearGradient-1)" points="13.3632 3.52426667 14.0885333 0.6912 0.2816 0.6912 2.67093333 3.52426667"></polygon>
                            <polygon id="path2594" fill="url(#linearGradient-2)" points="0.2816 1.41653333 2.4832 3.52426667 2.67093333 3.52426667 0.2816 0.6912"></polygon>
                            <polygon id="path3415" fill="url(#linearGradient-3)" points="6.10133333 6.82666667 3.7632 4.0704 13.2010667 4.0704 12.5013333 6.82666667"></polygon>
                            <polygon id="path3417" fill="url(#linearGradient-4)" points="5.97333333 6.82666667 3.7632 4.77013333 3.7632 4.0704 6.10133333 6.82666667"></polygon>
                            <polygon id="path3435" fill="url(#linearGradient-5)" points="9.984 10.3168 7.62026667 7.53493333 12.3221333 7.53493333 11.5968 10.3168"></polygon>
                            <polygon id="path3437" fill="url(#linearGradient-6)" points="7.62026667 8.23466667 9.84746667 10.3168 9.984 10.3168 7.62026667 7.53493333"></polygon>
                            <polygon id="path3457" fill="url(#linearGradient-7)" points="12.0746667 10.3168 13.4144 10.3168 14.1226667 7.54346667 12.8 7.54346667"></polygon>
                            <polygon id="path3473" fill="url(#linearGradient-8)" points="12.9792 6.82666667 14.3018667 6.82666667 15.0101333 4.096 13.6533333 4.096"></polygon>
                            <polygon id="path3487" fill="url(#linearGradient-9)" points="13.8496 3.5072 15.1978667 3.5072 15.8805333 0.699733333 14.5066667 0.699733333"></polygon>
                            <path d="M26.5216,10.3253333 C25.9699355,10.2538041 25.4966353,9.89720803 25.2757333,9.38666667 C25.1289835,9.05758975 25.0786776,8.69361157 25.1306667,8.33706667 C25.129127,7.90430705 25.1720185,7.47253258 25.2586667,7.04853333 C25.4770342,5.86006387 25.9453205,4.73152283 26.6325333,3.7376 C27.2448975,3.06868647 28.1065269,2.68265177 29.0133333,2.67093333 C29.842419,2.53493832 30.6932778,2.66331351 31.4453333,3.03786667 C31.914072,3.39591528 32.1470704,3.98333362 32.0512,4.56533333 C32.0428415,5.2050212 31.9304392,5.83908583 31.7184,6.44266667 C31.5733333,6.82666667 31.5733333,6.82666667 29.2949333,6.82666667 L27.3066667,6.82666667 L27.2554667,7.03146667 C27.008,7.97013333 27.0421333,8.37973333 27.4261333,8.61866667 C28.0727938,8.83038109 28.7620776,8.87731105 29.4314667,8.7552 C29.9012022,8.73868 30.3530826,8.57109519 30.72,8.27733333 C31.1296,7.89333333 31.1552,7.936 30.9504,8.72106667 C30.6176,10.0010667 30.5493333,10.1034667 30.0032,10.2826667 C28.8473683,10.4188541 27.680422,10.4331549 26.5216,10.3253333 Z M30.3616,5.4272 C30.5066667,4.82133333 30.4725333,4.51413333 30.2165333,4.2752 C29.6489456,3.90384226 28.915321,3.90384226 28.3477333,4.2752 C28.0659193,4.54079152 27.8597694,4.87652142 27.7504,5.248 L27.6309333,5.58933333 L30.3104,5.58933333 L30.3616,5.4272 Z M50.9525333,10.2997333 C50.4705143,10.2162152 50.0630537,9.89538011 49.8688,9.4464 L49.6810667,9.07946667 L49.6810667,8.22613333 C49.6655603,7.7650416 49.7056716,7.30376118 49.8005333,6.85226667 C50.011331,5.66010056 50.5059718,4.53618322 51.2426667,3.57546667 C52.011637,2.83217451 53.0729622,2.47213794 54.1354667,2.59413333 C55.5605333,2.59413333 56.2005333,2.87573333 56.5162667,3.6352 C56.6647079,4.31267521 56.6647079,5.01425812 56.5162667,5.69173333 C56.3712,6.2976 56.2261333,6.61333333 56.0725333,6.69866667 C55.3554863,6.80722599 54.6291546,6.84154087 53.9050667,6.80106667 L51.8570667,6.80106667 L51.7632,7.17653333 C51.6337283,7.54376697 51.6337283,7.94423303 51.7632,8.31146667 C51.8434745,8.44382393 51.9626915,8.54813882 52.1045333,8.61013333 C52.3434667,8.7296 52.4288,8.73813333 53.1968,8.73813333 C53.9471715,8.85246766 54.711203,8.64831349 55.3045333,8.17493333 C55.5178667,7.97866667 55.6629333,7.90186667 55.6629333,7.9872 C55.6629333,8.07253333 55.2192,9.6512 55.1594667,9.7792 C54.9376,10.1973333 54.3658667,10.3253333 52.5994667,10.3168 C52.0521589,10.3841313 51.4983282,10.3783921 50.9525333,10.2997333 Z M54.912,5.3248 C55.0997333,4.36053333 54.7669333,3.98506667 53.76,4.03626667 C52.9664,4.03626667 52.5824,4.39466667 52.2752,5.29066667 C52.224,5.4528 52.1728,5.59786667 52.1728,5.6064 C52.1728,5.61493333 52.7786667,5.6064 53.5125333,5.6064 L54.8437333,5.6064 L54.912,5.3248 Z M15.9829333,10.2912 C15.8805333,10.1888 15.9061333,9.9072 16.0768,9.25866667 C16.8704,6.22933333 18.0736,1.47626667 18.0821333,1.3312 C18.0896748,1.22787256 18.0486655,1.12692668 17.9712,1.05813333 C17.910477,1.0153366 17.867883,0.951445649 17.8517333,0.878933333 C17.8517333,0.802133333 17.9797333,0.7936 19.0037333,0.7936 C20.0277333,0.7936 20.1642667,0.7936 20.2410667,0.878933333 C20.3178667,0.964266667 20.3434667,1.152 19.8997333,2.8416 C19.6949333,3.6352 19.5413333,4.29226667 19.5584,4.30933333 C19.5754667,4.3264 20.2069333,4.30933333 20.9749333,4.30933333 L22.3658667,4.30933333 L22.4170667,4.18986667 C22.4853333,4.02773333 23.0997333,1.62986667 23.1424,1.37386667 C23.1850667,1.11786667 23.1424,1.152 23.04,1.04106667 C22.7584,0.776533333 22.8010667,0.768 24.0725333,0.768 C25.344,0.768 25.3696,0.768 25.3696,1.0496 C25.3696,1.18613333 24.704,3.83146667 24.0554667,6.3232 C23.2874667,9.2416 23.2021333,9.8048 23.2021333,9.94986667 C23.2294604,10.0261882 23.2802405,10.0919035 23.3472,10.1376 C23.3898858,10.1578297 23.4166436,10.2013112 23.4154667,10.2485333 C23.4154667,10.3168 23.2618667,10.3253333 22.2464,10.3253333 C20.9834667,10.3253333 20.9493333,10.3253333 20.9493333,10.0437333 C20.9493333,9.9584 21.1797333,9.00266667 21.4613333,7.92746667 C21.7429333,6.85226667 21.9648,5.93066667 21.9648,5.888 C21.9648,5.84533333 21.7002667,5.8112 20.5312,5.8112 L19.1146667,5.8112 L18.6112,7.79093333 C18.3381333,8.87466667 18.1162667,9.8048 18.1162667,9.856 C18.1335356,9.94195837 18.1784962,10.01989 18.2442667,10.0778667 C18.3010578,10.125124 18.3376812,10.1922668 18.3466667,10.2656 C17.561993,10.3594846 16.7694563,10.368068 15.9829333,10.2912 Z M32.3328,10.2912 C32.2858784,10.2526972 32.2553689,10.1977802 32.2474667,10.1376 C32.2474667,10.1376 32.6485333,8.51626667 33.1008,6.61333333 C33.9541333,3.39626667 33.9541333,3.1488 33.9029333,3.03786667 C33.8517333,2.92693333 33.8005333,2.90986667 33.7664,2.90986667 C33.7322667,2.90986667 33.7152,2.90986667 33.7152,2.83306667 C33.7152,2.75626667 33.8688,2.74773333 34.7562667,2.74773333 C36.1130667,2.74773333 36.0618667,2.74773333 35.8314667,3.6608 C35.8314667,3.74613333 35.8997333,3.6608 36.0789333,3.42186667 C36.2581333,3.18293333 36.4288,2.97813333 36.4970667,2.90133333 L36.6336,2.74773333 L37.632,2.74773333 C37.9499103,2.718569 38.269823,2.718569 38.5877333,2.74773333 C38.4982317,3.16548473 38.3784487,3.57616926 38.2293333,3.97653333 C38.1013333,4.16426667 37.9050667,4.20693333 37.0517333,4.224 C36.3605333,4.224 36.1984,4.224 36.0362667,4.352 C35.6522667,4.54826667 35.584,4.72746667 34.9098667,7.30453333 C34.5770667,8.6016 34.2869333,9.728 34.2698667,9.8048 C34.2448926,9.91824025 34.2842233,10.0362322 34.3722667,10.112 C34.4231111,10.1685922 34.4661593,10.2317295 34.5002667,10.2997333 C34.1537503,10.3262324 33.8057163,10.3262324 33.4592,10.2997333 C32.5802667,10.3509333 32.4266667,10.3424 32.3328,10.24 L32.3328,10.2912 Z M37.8112,10.2912 C37.7661026,10.2547945 37.7357753,10.2032381 37.7258667,10.1461333 C37.7258667,10.1461333 38.1184,8.55893333 38.5792,6.7328 C39.04,4.90666667 39.4325333,3.31946667 39.4325333,3.21706667 C39.4238936,3.13204466 39.3844338,3.05312498 39.3216,2.9952 C39.0826667,2.80746667 39.168,2.78186667 40.2517333,2.78186667 C41.5488,2.78186667 41.5744,2.78186667 41.3781333,3.4816 C41.3407733,3.57724416 41.3177687,3.67788927 41.3098667,3.78026667 C41.3098667,3.78026667 41.4122667,3.69493333 41.5146667,3.54986667 C42.0778667,2.77333333 42.1632,2.69653333 43.3749333,2.69653333 C44.2282667,2.69653333 44.2965333,2.69653333 44.5781333,2.8416 C44.8904146,3.00137448 45.1041791,3.30447345 45.1498667,3.65226667 L45.1925333,3.82293333 L45.4912,3.3792 C45.9349333,2.7136 45.9861333,2.69653333 47.1978667,2.69653333 C48.128,2.69653333 48.2133333,2.69653333 48.4608,2.82453333 C48.8750685,2.9723333 49.1330848,3.38586625 49.0837333,3.82293333 C49.0837333,3.98506667 48.8021333,5.20533333 48.3498667,7.00586667 C47.9402667,8.66133333 47.6416,9.97546667 47.6586667,10.0437333 C47.6784337,10.117149 47.727914,10.1789994 47.7952,10.2144 C48.0426667,10.3509333 47.872,10.3765333 46.8309333,10.3765333 C45.7898667,10.3765333 45.6448,10.3765333 45.6448,10.1205333 C45.6448,10.0522667 45.9349333,8.84906667 46.2848,7.4496 C46.6346667,6.05013333 46.9333333,4.82986667 46.9333333,4.72746667 C46.9333333,4.34346667 46.592,4.15573333 45.9946667,4.224 C45.5222852,4.21501104 45.1040644,4.52779797 44.9792,4.98346667 C44.8853333,5.20533333 43.7418667,9.50613333 43.6821333,9.856 C43.6330715,9.97461731 43.6762466,10.1113384 43.7845333,10.1802667 C43.8613333,10.2485333 43.904,10.3253333 43.8869333,10.3424 C43.5316727,10.3628794 43.1755273,10.3628794 42.8202667,10.3424 C41.728,10.3424 41.6682667,10.3424 41.6682667,10.0778667 C41.6682667,10.0096 41.9584,8.81493333 42.3082667,7.43253333 C42.6581333,6.05013333 42.9568,4.82133333 42.9568,4.70186667 C42.9568,4.28373333 42.5642667,4.096 41.9072,4.21546667 C41.5699065,4.23203776 41.2686887,4.43175831 41.1221333,4.736 C40.9685333,5.0176 39.7312,9.63413333 39.7312,9.91573333 C39.7261363,10.0064921 39.7680261,10.0934939 39.8421333,10.1461333 C39.893303,10.1718213 39.9307043,10.2185729 39.9445333,10.2741333 C39.9445333,10.3253333 39.7056,10.3424 38.9034667,10.3424 C38.1013333,10.3424 37.8794667,10.3424 37.8112,10.24 L37.8112,10.2912 Z M56.9258667,10.24 C56.8490667,10.1205333 56.8576,10.0608 57.0794667,9.20746667 C57.2586667,8.50773333 57.3269333,8.30293333 57.4037333,8.28586667 C57.4805333,8.2688 57.5146667,8.28586667 57.5573333,8.40533333 C57.6512,8.61866667 57.8304,8.704 58.3082667,8.76373333 C59.0958862,8.84126405 59.8901679,8.8183245 60.672,8.69546667 C60.9219364,8.57395988 61.0970478,8.33835546 61.1413333,8.064 C61.2222657,7.86127049 61.1555347,7.62946777 60.9792,7.5008 C60.588318,7.35338612 60.1894682,7.22803333 59.7845333,7.12533333 C58.5984,6.80106667 58.2912,6.64746667 58.0778667,6.31466667 C57.9669333,6.1184 57.9584,6.05013333 57.9754667,5.56373333 C57.96664,4.55643046 58.4389966,3.60537704 59.2469333,3.00373333 C59.6736,2.78186667 59.9637333,2.75626667 61.8837333,2.75626667 L63.7013333,2.75626667 L63.5648,3.25973333 C63.4026667,3.84853333 63.3173333,4.0192 63.1552,4.11306667 C62.6996703,4.19841772 62.2356862,4.22992281 61.7728,4.20693333 C60.6805333,4.20693333 60.4842667,4.2496 60.3648,4.33493333 C60.1809455,4.44927822 60.0586259,4.64059858 60.032,4.85546667 C59.9637333,5.20533333 60.1002667,5.29066667 61.2608,5.64053333 C62.7114667,6.0672 62.9674667,6.22933333 63.1210667,6.7328 C63.1927452,7.58336649 63.0458768,8.43814061 62.6944,9.216 C62.5239108,9.63911778 62.201233,9.9831045 61.7898667,10.1802667 L61.44,10.3253333 L59.2213333,10.3253333 L57.0112,10.3253333 L56.9258667,10.24 Z" id="path3497" fill="#484649"></path>
                        </g>
                    </g>
                </g>
            </g>
        </g>
    </g>
</svg>