<?xml version="1.0" encoding="UTF-8"?>
<svg width="78px" height="38px" viewBox="0 0 78 38" version="1.1" xmlns="http://www.w3.org/2000/svg" xmlns:xlink="http://www.w3.org/1999/xlink">
    <!-- Generator: Sketch 51.3 (57544) - http://www.bohemiancoding.com/sketch -->
    <title>post</title>
    <desc>Created with Sketch.</desc>
    <defs></defs>
    <g id="Page-1" stroke="none" stroke-width="1" fill="none" fill-rule="evenodd">
        <g id="Desktop-HD-Copy-3" transform="translate(-796.000000, -2565.000000)" fill-rule="nonzero">
            <g id="FOOTER" transform="translate(0.000000, 2268.000000)">
                <g id="Shop-Service" transform="translate(630.000000, 107.000000)">
                    <g id="post" transform="translate(166.000000, 190.000000)">
                        <rect id="Rectangle" fill="#FFFFFF" x="0" y="0" width="78" height="38"></rect>
                        <rect id="Rectangle" fill="#FFCC07" x="2" y="2" width="74" height="34"></rect>
                        <g transform="translate(7.000000, 13.000000)" fill="#241F21" id="Shape">
                            <path d="M55.6755495,1.22181907 C54.3271327,1.24405412 53.2507815,2.32192535 53.2674843,3.63328497 C53.2841871,4.9446446 54.3876617,5.99625993 55.7362312,5.98600991 C57.0848007,5.97575989 58.1712369,4.90749978 58.1668592,3.59604648 C58.1647313,2.95856327 57.8999595,2.34850333 57.4317608,1.90230826 C56.9635622,1.45611319 56.3310003,1.21101085 55.6755495,1.22181907 Z M50.1946683,10 L51.938585,8.28797207 L53.6575887,8.28797207 L51.9219763,10 L50.1946683,10 Z M54.2471987,10 L52.5115863,10 L54.255503,8.28797207 L55.9828111,8.28797207 L54.2471987,10 Z M58.1336418,10 L56.389725,8.28797207 L58.117033,8.28797207 L59.8609498,10 L58.1336418,10 Z M60.4588641,10 L58.7149474,8.28797207 L60.4422554,8.28797207 L62.1861722,10 L60.4588641,10 Z M56.0575504,7.98109914 C51.5399755,7.98109914 49.7877543,4.15326312 50.0202766,1.25412148 L51.3489751,0.842265709 C51.1636743,2.01187219 51.4014108,3.20776818 52.0216287,4.22594355 C51.8107651,3.17506556 52.0995865,2.08780657 52.8074559,1.26772161 C53.5153254,0.447636647 54.5664066,-0.0174160466 55.6672452,0.00240295195 C56.6473057,-0.0329671472 57.5995287,0.323386452 58.3023623,0.988551626 C59.0051959,1.6537168 59.3973565,2.56969455 59.387601,3.52336605 C59.6983526,2.60346589 59.8826462,1.6476431 59.9356891,0.68075364 L63,1.42370916 C62.8665668,5.06541297 59.8047122,7.95744325 56.0575504,7.98109914 Z"></path>
                            <path d="M28.3762448,5.48087104 C28.1347605,5.46495719 27.8985453,5.55882498 27.7290527,5.73805394 C27.5595601,5.91728289 27.4735473,6.16415311 27.4933913,6.41443924 L29.1591526,6.41443924 C29.1591526,5.90443439 28.9092884,5.48087104 28.326272,5.48087104 L28.3762448,5.48087104 Z M37.7544813,5.52409179 C37.4715744,5.53886954 37.2071902,5.67456155 37.0241467,5.89892723 C36.8411032,6.12329292 36.75574,6.41630388 36.7883397,6.70834034 C36.7883397,7.36529574 36.9965598,8.08276018 37.7544813,8.08276018 C38.5124027,8.08276018 38.7206228,7.37393989 38.7206228,6.70834034 C38.7557939,6.41578503 38.6713625,6.12130714 38.4877998,5.89630503 C38.304237,5.67130292 38.0383051,5.53632287 37.7544813,5.52409179 Z M33.6733659,4.25340175 L33.3152272,4.25340175 L33.3152272,5.89579024 L33.6733659,5.89579024 C34.1980808,5.89579024 34.6644939,5.72290724 34.6644939,5.09188429 C34.6644939,4.46086135 34.2147384,4.2274693 33.6733659,4.2274693 L33.6733659,4.25340175 Z M1.56581568,4.2274693 L1.04110085,4.2274693 L1.04110085,7.91852133 L1.61578852,7.91852133 C2.55071111,7.8520751 3.27638443,7.04558812 3.27638443,6.07299531 C3.27638443,5.10040251 2.55071111,4.29391553 1.61578852,4.2274693 L1.56581568,4.2274693 Z M6.61307261,5.45493859 C6.37158829,5.43902474 6.13537315,5.53289253 5.96588054,5.71212149 C5.79638792,5.89135044 5.71037512,6.13822066 5.73021908,6.38850679 L7.39598045,6.38850679 C7.39598045,5.87850194 7.14611624,5.45493859 6.56309976,5.45493859 L6.61307261,5.45493859 Z M1.41589716,8.79158048 L0,8.79158048 L0,3.3976309 L1.41589716,3.3976309 C3.00669926,3.3976309 4.41426761,3.95950065 4.41426761,6.09460569 C4.41426761,8.22971073 3.01502806,8.79158048 1.41589716,8.79158048 Z M6.854608,8.12598093 C7.30580966,8.11289284 7.74556797,7.97567203 8.12891544,7.72835003 L8.12891544,8.59276503 C7.72456824,8.81644525 7.27096097,8.92669158 6.81296397,8.91259858 C6.26931617,8.96961927 5.72967283,8.77068255 5.34249198,8.37051668 C4.95531112,7.97035082 4.76138018,7.41111115 4.81405033,6.84664674 C4.74693711,6.31635795 4.90320207,5.78176644 5.24288944,5.37956319 C5.58257681,4.97735994 6.07275391,4.74653855 6.58808619,4.74611829 C8.01231215,4.74611829 8.41209488,5.75748384 8.41209488,7.14919199 L5.76353431,7.14919199 C5.77156216,7.43554374 5.89333532,7.7057008 6.09998469,7.89561624 C6.30663406,8.08553168 6.57975865,8.17829459 6.854608,8.15191338 L6.854608,8.12598093 Z M12.3932645,8.81751293 L11.4437806,8.81751293 L11.4437806,8.28157563 C11.138356,8.67884125 10.6758212,8.91091703 10.1861307,8.91259858 C9.27829078,8.91259858 8.88683686,8.24699903 8.88683686,7.34800744 L8.88683686,4.84120394 L9.88629368,4.84120394 L9.88629368,6.95902069 C9.88629368,7.45173723 9.88629368,8.10869263 10.5276118,8.10869263 C11.1689299,8.10869263 11.4104653,7.29614254 11.4104653,6.78613769 L11.4104653,4.81527149 L12.4099221,4.81527149 L12.4099221,8.79158048 L12.3932645,8.81751293 Z M14.7919609,8.91259858 C14.4568338,8.9430717 14.1261661,8.81620594 13.890719,8.56682327 C13.6552719,8.31744061 13.5397843,7.97174414 13.5759551,7.62462023 L13.5759551,5.56731254 L12.8430201,5.56731254 L12.8430201,4.81527149 L13.5759551,4.81527149 L13.5759551,4.01136555 L14.5754119,3.68288785 L14.5754119,4.80662734 L15.5082383,4.80662734 L15.5082383,5.55866839 L14.5754119,5.55866839 L14.5754119,7.46902553 C14.5754119,7.80614738 14.6670288,8.12598093 15.0418251,8.12598093 C15.2002539,8.12926245 15.3571957,8.09372415 15.4999095,8.02225113 L15.4999095,8.83480123 C15.2611407,8.90221023 15.0143841,8.93422264 14.7669745,8.92988688 L14.7919609,8.91259858 Z M17.115698,8.92988688 C16.73276,8.92023589 16.3523829,8.86218017 15.9829803,8.75700388 L16.0412819,7.89258888 C16.3447156,8.0579285 16.6814057,8.14676863 17.0240811,8.15191338 C17.2822741,8.15191338 17.6820569,8.05682773 17.6820569,7.66784098 C17.6820569,6.88986749 15.949665,7.41716064 15.949665,5.98223174 C15.949665,5.11781674 16.6659424,4.74611829 17.4488503,4.74611829 C17.8168321,4.75057616 18.1830345,4.79989789 18.539924,4.89306884 L18.4732935,5.67104234 C18.1852426,5.56125408 17.8806409,5.50563783 17.5737824,5.50680349 C17.3155894,5.50680349 16.9907659,5.60188914 16.9907659,5.94765514 C16.9907659,6.57867809 18.7231577,6.17240304 18.7231577,7.60733193 C18.7231577,8.54090013 17.9319211,8.91259858 17.115698,8.91259858 L17.115698,8.92988688 Z M20.996922,8.91259858 C20.4641379,8.93917977 19.9470429,8.72127256 19.5829235,8.31673037 C19.218804,7.91218818 19.0444979,7.36193846 19.1062828,6.81207014 C19.0559118,6.27404833 19.2305854,5.73948304 19.5859045,5.34425195 C19.9412236,4.94902086 20.4429695,4.73118633 20.9636067,4.74611829 C21.289841,4.74346615 21.6148947,4.78709039 21.9297483,4.87578054 L21.8381315,5.74019554 C21.6272073,5.63779242 21.3962932,5.58749406 21.1634981,5.59324499 C20.5388376,5.59324499 20.1473837,6.10324984 20.1473837,6.85529089 C20.1473837,7.60733193 20.4805359,8.15191338 21.1801557,8.15191338 C21.4449342,8.13992052 21.7050438,8.07536542 21.9464059,7.96174208 L21.9464059,8.82615708 C21.6254257,8.92765674 21.2906904,8.9743672 20.9552779,8.96446348 L20.996922,8.91259858 Z M25.952562,8.86937783 L25.0613797,8.86937783 L25.0613797,6.66511959 C25.0613797,6.18104719 25.0613797,5.52409179 24.4117328,5.52409179 C23.7620858,5.52409179 23.5288792,6.33664189 23.5288792,6.84664674 L23.5288792,8.79158048 L22.5377512,8.79158048 L22.5377512,3 L23.5288792,3 L23.5288792,5.35120879 C23.8054552,4.94572926 24.2579955,4.70927254 24.7365562,4.72018584 C25.6443962,4.72018584 26.0358501,5.38578539 26.0358501,6.28477699 L25.952562,8.86937783 Z M28.4512041,8.20377828 C28.9020259,8.18826731 29.3411935,8.05123081 29.7255115,7.80614738 L29.7255115,8.67056238 C29.318151,8.89420617 28.8618767,9.00440324 28.4012312,8.99039593 C27.8575834,9.04741662 27.3179401,8.8484799 26.9307592,8.44831403 C26.5435784,8.04814817 26.3496474,7.4889085 26.4023176,6.92444409 C26.3378325,6.39323494 26.496174,5.85885511 26.8371201,5.4570479 C27.1780662,5.0552407 27.6688062,4.82467372 28.1846822,4.82391564 C29.6089082,4.82391564 30.0086909,5.83528119 30.0086909,7.22698934 L27.4933913,7.22698934 C27.5014191,7.51334109 27.6231923,7.78349815 27.8298417,7.97341359 C28.036491,8.16332903 28.3096156,8.25609194 28.584465,8.22971073 L28.4512041,8.20377828 Z M33.8316133,6.74291694 L33.3901865,6.74291694 L33.3901865,8.79158048 L32.3240992,8.79158048 L32.3240992,3.3976309 L33.6400507,3.3976309 C34.7727684,3.3976309 35.8055405,3.7433969 35.8055405,5.03137524 C35.8055405,6.31935359 34.9226869,6.76020524 33.8066268,6.76020524 L33.8316133,6.74291694 Z M37.8044541,8.90395443 C37.2675309,8.93636053 36.7425496,8.73094863 36.3598718,8.33872597 C35.977194,7.94650332 35.7727155,7.40426093 35.7972117,6.84664674 C35.7972117,5.69610498 36.6958847,4.76340659 37.8044541,4.76340659 C38.9130235,4.76340659 39.8116965,5.69610498 39.8116965,6.84664674 C39.8361927,7.40426093 39.6317142,7.94650332 39.2490364,8.33872597 C38.8663586,8.73094863 38.3413773,8.93636053 37.8044541,8.90395443 Z M41.3941698,8.90395443 C41.0112319,8.89430344 40.6308547,8.83624772 40.2614521,8.73107143 L40.3197538,7.86665643 C40.6231874,8.03199605 40.9598776,8.12083618 41.302553,8.12598093 C41.560746,8.12598093 41.9605287,8.03089528 41.9605287,7.64190853 C41.9605287,6.86393504 40.2281369,7.39122819 40.2281369,5.95629929 C40.2281369,5.09188429 40.9527431,4.72018584 41.7356509,4.72018584 C42.1008924,4.7245987 42.4643426,4.77392631 42.8183958,4.86713639 L42.7517653,5.64510989 C42.4664321,5.53597516 42.1646752,5.48036341 41.860583,5.48087104 C41.5940612,5.48087104 41.2692377,5.57595669 41.2692377,5.92172269 C41.2692377,6.55274564 43.0016295,6.14647059 43.0016295,7.58139948 C43.0016295,8.51496768 42.2103929,8.88666613 41.3941698,8.88666613 L41.3941698,8.90395443 Z M45.2920514,8.88666613 C44.9569244,8.91713925 44.6262566,8.79027349 44.3908095,8.54089082 C44.1553624,8.29150816 44.0398748,7.94581169 44.0760456,7.59868778 L44.0760456,5.56731254 L43.3431106,5.56731254 L43.3431106,4.81527149 L44.0760456,4.81527149 L44.0760456,4.01136555 L45.0755024,3.68288785 L45.0755024,4.80662734 L45.958356,4.80662734 L45.958356,5.55866839 L45.0755024,5.55866839 L45.0755024,7.46902553 C45.0755024,7.80614738 45.1671193,8.12598093 45.5419156,8.12598093 C45.7003445,8.12926245 45.8572862,8.09372415 46,8.02225113 L46,8.83480123 C45.7612313,8.90221023 45.5144747,8.93422264 45.267065,8.92988688 L45.2920514,8.88666613 Z"></path>
                        </g>
                    </g>
                </g>
            </g>
        </g>
    </g>
</svg>