<?xml version="1.0" encoding="UTF-8"?>
<svg width="78px" height="38px" viewBox="0 0 78 38" version="1.1" xmlns="http://www.w3.org/2000/svg" xmlns:xlink="http://www.w3.org/1999/xlink">
    <!-- Generator: Sketch 51.3 (57544) - http://www.bohemiancoding.com/sketch -->
    <title>ups</title>
    <desc>Created with Sketch.</desc>
    <defs>
        <polygon id="path-1" points="0.220690994 0.00121258788 31.141682 0.00121258788 31.141682 34.8631142 0.220690994 34.8631142"></polygon>
        <path d="M0.220690994,2.61252059 L0.220690994,15.4598892 C0.220690994,18.1627476 1.2353239,20.4239208 3.15515367,21.9972536 C4.91128406,23.4372017 10.4928261,25.8866292 11.1339819,26.1649181 C11.7748346,25.8866292 17.3566798,23.4372017 19.1128102,21.9975567 C21.0326399,20.424224 22.0472728,18.1627476 22.0472728,15.4601923 L22.0472728,2.61252059 C19.0158031,1.00493221 15.3437839,0.190376297 11.1339819,0.190376297 C6.92417995,0.190376297 3.25276699,1.00523535 0.220690994,2.61312688" id="path-3"></path>
        <radialGradient cx="15.2850222%" cy="17.2813072%" fx="15.2850222%" fy="17.2813072%" r="166.122222%" gradientTransform="translate(0.152850,0.172813),scale(1.000000,0.840336),rotate(90.000000),translate(-0.152850,-0.172813)" id="radialGradient-5">
            <stop stop-color="#FFDC00" offset="0%"></stop>
            <stop stop-color="#FFBE00" offset="35%"></stop>
            <stop stop-color="#C86E14" offset="100%"></stop>
        </radialGradient>
        <polygon id="path-6" points="0.220690994 0.00121258788 31.141682 0.00121258788 31.141682 34.8631142 0.220690994 34.8631142"></polygon>
        <path d="M9.54609809,7.77571979 L9.54609809,13.6094801 C9.68190793,13.6601056 9.90472096,13.7240696 10.1620927,13.7240696 C11.2552407,13.7240696 11.7766535,12.7212595 11.7766535,10.6456122 C11.7766535,8.51842986 11.3204173,7.6390005 10.2184781,7.6390005 C9.96080315,7.6390005 9.70009675,7.6996299 9.54609809,7.77541664 L9.54609809,7.77571979 Z M4.77668681,13.4585129 L4.77668681,6.30242551 L6.67196167,6.30242551 L6.67196167,14.5389287 C5.94653097,15.0318457 4.97312605,15.3016465 3.81116371,15.3016465 C1.93225879,15.3016465 0.979771008,14.2824664 0.979771008,12.2701768 L0.979771008,6.30242551 L2.87747104,6.30242551 L2.87747104,12.3547548 C2.87747104,12.8934469 3.00782424,13.6907235 3.87785604,13.6907235 C4.26376214,13.6907235 4.56994058,13.6006888 4.77638366,13.4585129 L4.77668681,13.4585129 Z M7.64597288,6.78533863 C8.3347228,6.34092518 9.1698927,6.10992718 10.2054428,6.10992718 C12.4717695,6.10992718 13.7170973,7.8293768 13.7170973,10.5974118 C13.7170973,13.3706003 12.5075408,15.2689066 10.4000631,15.2689066 C10.0105193,15.2689066 9.7352618,15.2173716 9.54579494,15.1612894 L9.54579494,19.1588885 L7.64597288,19.1588885 L7.64597288,6.78564178 L7.64597288,6.78533863 Z M17.1829766,12.6785157 C17.1690318,12.0822256 16.8322355,11.759071 15.9976719,11.2688823 C14.4316147,10.3497407 14.1502943,9.59429846 14.147566,8.58421276 C14.139381,7.05028909 15.4456413,6.14630482 16.6949099,6.10992718 C17.7377355,6.07809675 18.444068,6.46976264 18.7781359,6.72652812 L18.7781359,8.37746652 C18.3825291,7.97124958 17.740767,7.60322916 17.0774814,7.59716622 C16.5396987,7.59231587 15.9794831,7.82907365 15.960688,8.5044851 C15.9424992,9.1950539 16.501199,9.46849247 17.2096535,9.88319752 C18.7957184,10.8156776 19.1025032,11.6535758 19.0661255,12.7612749 C19.0297479,13.9750753 18.1930623,15.3016465 16.3171888,15.3016465 C15.5665969,15.3016465 14.8244931,15.0670107 14.2300219,14.7120256 L14.2300219,12.963777 C14.7150571,13.3957615 15.4395783,13.7319515 16.045266,13.7361955 L16.0528447,13.7361955 C16.7452323,13.7361955 17.1999528,13.3381635 17.1835829,12.6782126 L17.1829766,12.6785157 Z M0.0112164379,5.68703716 L0.0112164379,13.0353197 C0.0112164379,15.4289682 0.896405591,17.4279193 2.57826498,18.7981436 C4.06277569,20.0077 8.63271627,22.0751624 9.92139404,22.6450787 C11.1933987,22.0842568 15.7518197,20.0422588 17.2627042,18.7981436 C18.95578,17.4036676 19.8318748,15.4514011 19.8318748,13.0353197 L19.8318748,0.457751925 C18.4840834,0.332249079 17.0841507,0.249793103 15.657541,0.249793103 C10.3685358,0.249793103 4.69877804,1.38659424 0.0109132909,5.68643087 L0.0112164379,5.68703716 Z" id="path-8"></path>
        <radialGradient cx="11.8271547%" cy="9.03939358%" fx="11.8271547%" fy="9.03939358%" r="181.517344%" gradientTransform="translate(0.118272,0.090394),scale(1.000000,0.885051),rotate(90.000000),translate(-0.118272,-0.090394)" id="radialGradient-10">
            <stop stop-color="#4B3333" offset="0%"></stop>
            <stop stop-color="#351A1A" offset="35%"></stop>
            <stop stop-color="#1E0000" offset="85%"></stop>
            <stop stop-color="#1E0000" offset="100%"></stop>
        </radialGradient>
        <path d="M0.0109132909,0 C0.0109132909,2.39364848 0.896102444,4.3925996 2.57796183,5.7628239 C4.06277569,6.97238031 8.63271627,9.03984265 9.92139404,9.60975896 L9.92139404,9.4603075 C8.85128524,8.98679193 4.16705825,6.88204252 2.66405557,5.65702561 C1.01766438,4.31560027 0.147026281,2.35939287 0.147026281,0 L0.010610144,0 L0.0109132909,0 Z" id="path-11"></path>
        <linearGradient x1="9994.04599%" y1="-10196.5242%" x2="9943.16051%" y2="-10245.6645%" id="linearGradient-13">
            <stop stop-color="#E49F15" offset="0%"></stop>
            <stop stop-color="#E39C15" offset="2.4%"></stop>
            <stop stop-color="#DC9116" offset="17.8%"></stop>
            <stop stop-color="#D88A17" offset="39.6%"></stop>
            <stop stop-color="#D78817" offset="100%"></stop>
        </linearGradient>
        <path d="M9.99475561,0 C9.99475561,2.37667225 9.14715668,4.28043522 7.47499799,5.65732876 C6.02110512,6.85475929 1.62608035,8.84037195 0.220690994,9.4603075 L0.220690994,9.60945581 C1.49239253,9.04863391 6.05081353,7.00663592 7.56169802,5.76252076 C9.255077,4.36834784 10.1311717,2.41608135 10.1311717,0 L9.99475561,0 Z" id="path-14"></path>
        <linearGradient x1="9959.15807%" y1="10362.3724%" x2="10010.0435%" y2="10313.2321%" id="linearGradient-16">
            <stop stop-color="#FFC20E" offset="0%"></stop>
            <stop stop-color="#D89016" offset="100%"></stop>
        </linearGradient>
        <path d="M0.0109132909,5.68643087 L0.147329428,5.74645397 C4.10339739,2.14021761 9.17716823,0.38620924 15.657541,0.38620924 C16.9228765,0.38620924 18.2452035,0.450476398 19.6954587,0.582042183 L19.8318748,0.457751925 C18.4840834,0.332249079 17.0841507,0.249793103 15.657541,0.249793103 C10.3685358,0.249793103 4.69877804,1.38659424 0.0109132909,5.68643087" id="path-17"></path>
        <linearGradient x1="5850.05673%" y1="21955.3707%" x2="5933.12661%" y2="21917.6282%" id="linearGradient-19">
            <stop stop-color="#E49F15" offset="0%"></stop>
            <stop stop-color="#8F4A02" offset="97.5%"></stop>
            <stop stop-color="#8F4A02" offset="100%"></stop>
        </linearGradient>
        <path d="M1.63638735,0.0354681955 C1.63638735,1.71338668 1.30595715,2.97781269 0.158242718,2.97781269 L0.158242718,3.11422882 C1.25139069,3.11422882 1.77280348,2.11081235 1.77280348,0.0354681955 L1.63638735,0.0354681955 Z" id="path-20"></path>
        <linearGradient x1="15395.7363%" y1="7303.30108%" x2="15433.9564%" y2="7232.32232%" id="linearGradient-22">
            <stop stop-color="#FFC20E" offset="0%"></stop>
            <stop stop-color="#FFC20E" offset="5%"></stop>
            <stop stop-color="#BF7312" offset="95%"></stop>
            <stop stop-color="#BF7312" offset="100%"></stop>
        </linearGradient>
        <path d="M0.148542015,0.334400067 C0.284351858,0.417900067 0.507164881,0.523400067 0.764536659,0.523400067 L0.764536659,0.298400067 C0.577798125,0.298400067 0.410460998,0.238400067 0.284958152,0.173400067 L0.148542015,0.334400067 Z" id="path-23"></path>
        <linearGradient x1="2405.1721%" y1="-34657.928%" x2="2312.1378%" y2="-34679.0302%" id="linearGradient-25">
            <stop stop-color="#FFC20E" offset="0%"></stop>
            <stop stop-color="#FFC20E" offset="5%"></stop>
            <stop stop-color="#F0AF13" offset="95%"></stop>
            <stop stop-color="#F0AF13" offset="100%"></stop>
        </linearGradient>
        <path d="M0.148542015,0.285826247 L0.284958152,0.434326247 C0.417130231,0.354326247 0.614175762,0.285326247 0.821528289,0.285326247 L0.821528289,0.0603262471 C0.563853365,0.0603262471 0.302540676,0.160326247 0.148542015,0.285326247" id="path-26"></path>
        <linearGradient x1="4491.58819%" y1="24134.682%" x2="4576.15396%" y2="24103.429%" id="linearGradient-28">
            <stop stop-color="#A65E0C" offset="0%"></stop>
            <stop stop-color="#A65E0C" offset="5%"></stop>
            <stop stop-color="#8F4A02" offset="95%"></stop>
            <stop stop-color="#8F4A02" offset="100%"></stop>
        </linearGradient>
        <path d="M0.214628055,0.197045531 C1.33384667,0.197045531 1.63638735,1.24290258 1.63638735,3.0669379 L1.77280348,3.0669379 C1.77280348,0.939755608 1.31626414,0.0603262471 0.214628055,0.0603262471 L0.214628055,0.196742384 L0.214628055,0.197045531 Z" id="path-29"></path>
        <linearGradient x1="15395.1073%" y1="-7180.15475%" x2="15356.6522%" y2="-7250.98497%" id="linearGradient-31">
            <stop stop-color="#BF7312" offset="0%"></stop>
            <stop stop-color="#BF7312" offset="5%"></stop>
            <stop stop-color="#8F4A02" offset="95%"></stop>
            <stop stop-color="#8F4A02" offset="100%"></stop>
        </linearGradient>
        <path d="M0.0666923334,2.82532976 L0.20310847,2.82442032 C0.194923502,1.29049665 1.5011838,0.386512387 2.75045246,0.350134751 L2.7462084,0.213718614 C1.3656771,0.254037161 0.0582042183,1.26412287 0.0663891865,2.82502662" id="path-32"></path>
        <linearGradient x1="-9502.81812%" y1="-10576.4663%" x2="-9555.25641%" y2="-10529.0792%" id="linearGradient-34">
            <stop stop-color="#FFC20E" offset="0%"></stop>
            <stop stop-color="#FFC20E" offset="5%"></stop>
            <stop stop-color="#D89016" offset="95%"></stop>
            <stop stop-color="#D89016" offset="100%"></stop>
        </linearGradient>
        <path d="M0.197651825,0.926113994 L0.334067961,0.929145464 C0.338918313,0.747257282 0.42319317,0.154908102 1.29565015,0.154908102 L1.31444526,0.0190982591 L1.29777218,0.0190982591 C0.7654461,0.0190982591 0.21614379,0.257978072 0.197954972,0.926417141" id="path-35"></path>
        <linearGradient x1="9458.00106%" y1="10936.7378%" x2="9511.7693%" y2="10889.9556%" id="linearGradient-37">
            <stop stop-color="#D78817" offset="0%"></stop>
            <stop stop-color="#D78817" offset="5%"></stop>
            <stop stop-color="#8F4A02" offset="95%"></stop>
            <stop stop-color="#8F4A02" offset="100%"></stop>
        </linearGradient>
        <path d="M0.0830622698,0.154604955 C0.868212923,0.154604955 1.53877402,0.6654076 1.93892802,1.13467911 L1.80251188,0.799095413 C1.40690509,0.392878473 0.765142953,0.0248580516 0.101857382,0.0187951122 L0.0830622698,0.155211249 L0.0830622698,0.154604955 Z" id="path-38"></path>
        <linearGradient x1="7311.09303%" y1="-14520.1516%" x2="7242.41133%" y2="-14557.7267%" id="linearGradient-40">
            <stop stop-color="#BF7312" offset="0%"></stop>
            <stop stop-color="#8F4A02" offset="95%"></stop>
            <stop stop-color="#8F4A02" offset="100%"></stop>
        </linearGradient>
        <path d="M0.0181888182,0.213718614 L0.0224328758,0.350134751 C1.06525845,0.318304319 1.77159089,0.709970204 2.10565886,0.966735688 L2.24207499,0.899437061 C1.95590425,0.667529628 1.22804838,0.211293438 0.138235018,0.211293438 C0.0988259123,0.211293438 0.0585073652,0.212202879 0.0181888182,0.213415467" id="path-41"></path>
        <linearGradient x1="-5411.53165%" y1="21790.7918%" x2="-5328.44897%" y2="21825.5902%" id="linearGradient-43">
            <stop stop-color="#FFC20E" offset="0%"></stop>
            <stop stop-color="#FFC20E" offset="5%"></stop>
            <stop stop-color="#E49F15" offset="95%"></stop>
            <stop stop-color="#E49F15" offset="100%"></stop>
        </linearGradient>
        <path d="M0.250702544,2.56947372 L0.250702544,2.70588986 C1.97166789,2.70588986 3.09028021,1.55999431 3.1366617,0.0342556076 L3.00024556,0.0294052561 C2.96386793,1.24320572 2.12627285,2.56977687 0.250702544,2.56977687" id="path-44"></path>
        <linearGradient x1="75.2297209%" y1="25.1651458%" x2="24.6722362%" y2="74.6722213%" id="linearGradient-46">
            <stop stop-color="#D78817" offset="0%"></stop>
            <stop stop-color="#D78817" offset="5%"></stop>
            <stop stop-color="#8F4A02" offset="95%"></stop>
            <stop stop-color="#8F4A02" offset="100%"></stop>
        </linearGradient>
        <path d="M0.149148309,0.238576666 C0.828197523,0.643884165 1.55756913,0.887311182 2.37273134,0.887311182 L2.37273134,0.750895045 C1.62213944,0.750895045 0.880035655,0.51625929 0.285564446,0.161274188 L0.149148309,0.238576666 Z" id="path-47"></path>
        <linearGradient x1="7.87717404%" y1="33.4141022%" x2="93.1088007%" y2="67.0276808%" id="linearGradient-49">
            <stop stop-color="#BF7312" offset="0%"></stop>
            <stop stop-color="#8F4A02" offset="95%"></stop>
            <stop stop-color="#8F4A02" offset="100%"></stop>
        </linearGradient>
        <path d="M0.285564446,0.535054402 C0.769993304,0.967038835 1.49512086,1.30322882 2.10050536,1.30747288 L2.10111165,1.17105675 C1.42509391,1.16620639 0.644187312,0.731493639 0.148845162,0.230694844 L0.285261299,0.535357549 L0.285564446,0.535054402 Z" id="path-50"></path>
        <linearGradient x1="7098.85078%" y1="-15412.1212%" x2="7027.32069%" y2="-15449.3503%" id="linearGradient-52">
            <stop stop-color="#FFC20E" offset="0%"></stop>
            <stop stop-color="#FFC20E" offset="5%"></stop>
            <stop stop-color="#F0AF13" offset="100%"></stop>
        </linearGradient>
        <path d="M1.28352427,0.25312772 C1.29868162,0.858815367 0.874882156,1.1753008 0.282532976,1.17105675 L0.281623535,1.30747288 C0.977648979,1.31050435 1.4360072,0.911562939 1.41963726,0.249489956 L1.28322112,0.25312772 L1.28352427,0.25312772 Z" id="path-53"></path>
        <linearGradient x1="9639.96073%" y1="10534.2588%" x2="9691.68631%" y2="10486.6817%" id="linearGradient-55">
            <stop stop-color="#FFC20E" offset="0%"></stop>
            <stop stop-color="#FFC20E" offset="5%"></stop>
            <stop stop-color="#D89016" offset="95%"></stop>
            <stop stop-color="#D89016" offset="100%"></stop>
        </linearGradient>
        <path d="M0.0666923334,0.0970070305 C0.0697238031,1.1604466 0.384390358,1.95954202 1.98379377,2.89808504 C2.83927452,3.40070271 3.09028021,3.69142066 3.10240609,4.19403833 L3.23882223,4.19100686 C3.22427118,3.59380733 2.88717174,3.27095581 2.05260814,2.78046401 C0.487157181,1.86192869 0.205836793,1.10618329 0.203411617,0.0960975896 L0.0669954804,0.0967038835 L0.0666923334,0.0970070305 Z" id="path-56"></path>
        <linearGradient x1="-12207.3193%" y1="8455.0672%" x2="-12165.1491%" y2="8515.24791%" id="linearGradient-58">
            <stop stop-color="#D89016" offset="0%"></stop>
            <stop stop-color="#BF7312" offset="40%"></stop>
            <stop stop-color="#BF7312" offset="60%"></stop>
            <stop stop-color="#D89016" offset="100%"></stop>
        </linearGradient>
        <path d="M1.44661734,1.3953855 C3.032076,2.32786558 3.33916388,3.16576381 3.30278624,4.27346284 L3.43920238,4.27831319 C3.47648945,3.1463624 3.16758269,2.24935052 1.5154317,1.27806763 C0.844264312,0.871244392 0.316788584,0.649643957 0.333764814,0.0200077 L0.197348678,0.0169762303 C0.178553565,0.707241881 0.737556579,0.980377302 1.44631419,1.3953855" id="path-59"></path>
        <linearGradient x1="-11824.4319%" y1="8642.89381%" x2="-11781.47%" y2="8701.23573%" id="linearGradient-61">
            <stop stop-color="#D78817" offset="0%"></stop>
            <stop stop-color="#E49F15" offset="40%"></stop>
            <stop stop-color="#E49F15" offset="60%"></stop>
            <stop stop-color="#D78817" offset="100%"></stop>
        </linearGradient>
        <polygon id="path-62" points="0.220690994 0.00121258788 31.141682 0.00121258788 31.141682 34.8631142 0.220690994 34.8631142"></polygon>
        <path d="M0.284958152,0.292244058 C0.49928306,0.368244058 0.739678607,0.407244058 1.00281018,0.407244058 L1.00281018,0.182244058 C0.613266321,0.182244058 0.338008872,0.0962440576 0.148542015,0.00424405758 L0.284958152,0.292744058 L0.284958152,0.292244058 Z" id="path-64"></path>
        <linearGradient x1="3.3112998%" y1="37.3930036%" x2="97.2653821%" y2="64.2594089%" id="linearGradient-66">
            <stop stop-color="#A65E0C" offset="0%"></stop>
            <stop stop-color="#A65E0C" offset="5%"></stop>
            <stop stop-color="#8F4A02" offset="95%"></stop>
            <stop stop-color="#8F4A02" offset="100%"></stop>
        </linearGradient>
        <path d="M3.41040341,0.290414797 C3.41040341,3.06360328 2.200847,4.96190961 0.0933692668,4.96190961 L0.0933692668,5.09832574 C2.53976532,5.09832574 3.54681955,2.7610626 3.54681955,0.290414797 L3.41040341,0.290414797 Z" id="path-67"></path>
        <linearGradient x1="-12063.698%" y1="-8590.03711%" x2="-12106.749%" y2="-8530.44125%" id="linearGradient-69">
            <stop stop-color="#A65E0C" offset="0%"></stop>
            <stop stop-color="#A65E0C" offset="5%"></stop>
            <stop stop-color="#8F4A02" offset="95%"></stop>
            <stop stop-color="#8F4A02" offset="100%"></stop>
        </linearGradient>
        <path d="M0.234332608,0.950972046 L0.370748745,1.0255462 C1.05949866,0.581132742 1.89466856,0.350134751 2.93021861,0.350134751 L2.93021861,0.213718614 C1.87829863,0.213718614 0.962794777,0.454720455 0.234332608,0.950972046" id="path-70"></path>
        <linearGradient x1="-4482.2261%" y1="-25761.4207%" x2="-4569.79734%" y2="-25728.4068%" id="linearGradient-72">
            <stop stop-color="#FFC20E" offset="0%"></stop>
            <stop stop-color="#FFC20E" offset="5%"></stop>
            <stop stop-color="#F0AF13" offset="95%"></stop>
            <stop stop-color="#F0AF13" offset="100%"></stop>
        </linearGradient>
        <path d="M0.202199029,0.350134751 C2.46852578,0.350134751 3.71385353,2.06958437 3.71385353,4.83761935 L3.85026967,4.83761935 C3.85026967,2.38879813 2.82563291,0.213718614 0.202502176,0.213718614 L0.202502176,0.350134751 L0.202199029,0.350134751 Z" id="path-73"></path>
        <linearGradient x1="-11464.8169%" y1="9001.84191%" x2="-11420.1614%" y2="9058.59658%" id="linearGradient-75">
            <stop stop-color="#FFC20E" offset="0%"></stop>
            <stop stop-color="#FFC20E" offset="5%"></stop>
            <stop stop-color="#A65E0C" offset="95%"></stop>
            <stop stop-color="#A65E0C" offset="100%"></stop>
        </linearGradient>
        <polygon id="path-76" points="0.220690994 0.00121258788 31.141682 0.00121258788 31.141682 34.8631142 0.220690994 34.8631142"></polygon>
        <polygon id="path-78" points="0.220690994 0.00121258788 31.141682 0.00121258788 31.141682 34.8631142 0.220690994 34.8631142"></polygon>
        <polygon id="path-80" points="0.220690994 0.00121258788 31.141682 0.00121258788 31.141682 34.8631142 0.220690994 34.8631142"></polygon>
        <path d="M0.237364078,0.144297958 C0.237364078,2.15416237 1.17954486,3.3121838 3.20517292,3.3121838 L3.20517292,3.17576766 C1.32626799,3.17576766 0.373780214,2.15658755 0.373780214,0.144297958 L0.237364078,0.144297958 Z" id="path-82"></path>
        <linearGradient x1="-10468.644%" y1="9775.58381%" x2="-10420.3731%" y2="9827.52688%" id="linearGradient-84">
            <stop stop-color="#D89016" offset="0%"></stop>
            <stop stop-color="#D89016" offset="5%"></stop>
            <stop stop-color="#8F4A02" offset="95%"></stop>
            <stop stop-color="#8F4A02" offset="100%"></stop>
        </linearGradient>
        <path d="M0.173703214,1.05373887 L0.173703214,1.19015501 C1.38629109,1.19015501 2.3660621,0.910047205 3.17061416,0.363473217 L3.03419802,0.290717944 C2.30876733,0.783634918 1.3353624,1.05343572 0.173400067,1.05343572" id="path-85"></path>
        <linearGradient x1="93.6685316%" y1="33.6281103%" x2="6.00407241%" y2="66.7242691%" id="linearGradient-87">
            <stop stop-color="#A65E0C" offset="0%"></stop>
            <stop stop-color="#A65E0C" offset="5%"></stop>
            <stop stop-color="#8F4A02" offset="95%"></stop>
            <stop stop-color="#8F4A02" offset="100%"></stop>
        </linearGradient>
        <path d="M0.240698694,0.322802765 L0.240698694,0.544259458 C0.62630164,0.544259458 0.93248008,0.39809804 1.13892317,0.167290954 L1.00250703,0.0442594576 C0.809705557,0.224869694 0.542633077,0.322802765 0.240698694,0.322802765" id="path-88"></path>
        <linearGradient x1="5.42017774%" y1="65.6946795%" x2="92.0023456%" y2="35.1123586%" id="linearGradient-90">
            <stop stop-color="#FFC20E" offset="0%"></stop>
            <stop stop-color="#FFC20E" offset="5%"></stop>
            <stop stop-color="#F0AF13" offset="95%"></stop>
            <stop stop-color="#F0AF13" offset="100%"></stop>
        </linearGradient>
        <path d="M0.149451456,0.228875963 C0.149451456,0.767568129 0.279804653,1.56484466 1.14983646,1.56484466 L1.14983646,1.42842852 C0.480791095,1.42842852 0.285867593,0.888826917 0.285867593,0.228875963 L0.149451456,0.228875963 Z" id="path-91"></path>
        <linearGradient x1="12025.4013%" y1="-8610.3063%" x2="11982.0546%" y2="-8669.13224%" id="linearGradient-93">
            <stop stop-color="#FFC20E" offset="0%"></stop>
            <stop stop-color="#FFC20E" offset="5%"></stop>
            <stop stop-color="#D78817" offset="95%"></stop>
            <stop stop-color="#D78817" offset="100%"></stop>
        </linearGradient>
        <polygon id="path-94" points="0.220690994 0.00121258788 31.141682 0.00121258788 31.141682 34.8631142 0.220690994 34.8631142"></polygon>
        <polygon id="path-96" points="0.220690994 0.00121258788 31.141682 0.00121258788 31.141682 34.8631142 0.220690994 34.8631142"></polygon>
    </defs>
    <g id="Page-1" stroke="none" stroke-width="1" fill="none" fill-rule="evenodd">
        <g id="Desktop-HD-Copy-3" transform="translate(-630.000000, -2608.000000)">
            <g id="FOOTER" transform="translate(0.000000, 2268.000000)">
                <g id="Shop-Service" transform="translate(630.000000, 107.000000)">
                    <g id="ups" transform="translate(0.000000, 233.000000)">
                        <rect id="Rectangle" fill="#FFFFFF" fill-rule="nonzero" x="0" y="0" width="78" height="38"></rect>
                        <g transform="translate(23.000000, 1.000000)">
                            <g id="Clipped">
                                <mask id="mask-2" fill="white">
                                    <use xlink:href="#path-1"></use>
                                </mask>
                                <g id="a"></g>
                                <path d="M15.6811865,4.20707365 C11.3140512,4.20707365 7.71357466,5.03769635 4.54053532,6.71955574 L4.54053532,19.7039468 C4.54053532,22.4777415 5.58396719,24.799241 7.55806026,26.4174396 C9.33813927,27.8761828 15.0351803,30.3759327 15.6811865,30.6566468 C16.3268895,30.3756296 22.0242337,27.8761828 23.8043127,26.4174396 C25.7784058,24.7986348 26.8218376,22.4774384 26.8218376,19.7039468 L26.8218376,6.72016204 C23.6487983,5.03769635 20.0483217,4.20707365 15.6811865,4.20707365" id="Shape" fill="#1E0000" fill-rule="nonzero" mask="url(#mask-2)"></path>
                            </g>
                            <g id="Clipped" transform="translate(4.547205, 4.244058)">
                                <mask id="mask-4" fill="white">
                                    <use xlink:href="#path-3"></use>
                                </mask>
                                <g id="c"></g>
                                <polygon id="Shape" fill="url(#radialGradient-5)" fill-rule="nonzero" mask="url(#mask-4)" points="0.220690994 0.190982591 22.0472728 0.190982591 22.0472728 26.164615 0.220690994 26.164615"></polygon>
                            </g>
                            <g id="Clipped">
                                <mask id="mask-7" fill="white">
                                    <use xlink:href="#path-6"></use>
                                </mask>
                                <g id="f"></g>
                                <path d="M22.6475039,28.9344689 L22.6475039,30.0491403 L22.8487934,30.0491403 L22.8487934,29.5841128 L22.8775924,29.5841128 C22.8927497,29.6065457 23.1807394,30.0491403 23.1807394,30.0491403 L23.4241664,30.0491403 L23.0885827,29.5580422 C23.2359121,29.5234834 23.3353443,29.4164725 23.3353443,29.2618676 C23.3353443,29.1036249 23.237731,28.9344689 22.9639893,28.9344689 L22.6475039,28.9344689 Z M22.940647,29.0972588 C23.1113187,29.0972588 23.1340547,29.1809274 23.1340547,29.2536826 C23.1340547,29.3588746 23.089189,29.4285984 22.8733483,29.4285984 L22.8490966,29.4285984 L22.8490966,29.0972588 L22.940647,29.0972588 Z M23.7279197,29.4949876 C23.7279197,29.9096927 23.3902139,30.2480047 22.9721743,30.2480047 C22.5559535,30.2480047 22.2173383,29.9096927 22.2173383,29.4949876 C22.2173383,29.07907 22.5559535,28.7386359 22.9721743,28.7386359 C23.3899108,28.7386359 23.7276165,29.0793731 23.7276165,29.4952908 L23.7279197,29.4949876 Z M22.9712648,28.5773617 C22.4665251,28.5773617 22.055761,28.9905511 22.055761,29.4952908 C22.055761,30.0000305 22.4665251,30.4107946 22.9712648,30.4107946 C23.479036,30.4107946 23.8885875,30.0000305 23.8885875,29.4952908 C23.8885875,28.9905511 23.4793391,28.5773617 22.9712648,28.5773617 Z" id="Shape" fill="#C86E14" fill-rule="nonzero" mask="url(#mask-7)"></path>
                            </g>
                            <g id="Clipped" transform="translate(5.759792, 6.669233)">
                                <mask id="mask-9" fill="white">
                                    <use xlink:href="#path-8"></use>
                                </mask>
                                <g id="h"></g>
                                <polygon id="Shape" fill="url(#radialGradient-10)" fill-rule="nonzero" mask="url(#mask-9)" points="0.0109132909 0.249793103 19.8318748 0.249793103 19.8318748 22.6450787 0.0109132909 22.6450787"></polygon>
                            </g>
                            <g id="Clipped" transform="translate(5.759792, 19.704553)">
                                <mask id="mask-12" fill="white">
                                    <use xlink:href="#path-11"></use>
                                </mask>
                                <g id="k"></g>
                                <polyline id="Shape" fill="url(#linearGradient-13)" fill-rule="nonzero" mask="url(#mask-12)" points="5.13925059 14.5616647 -4.79093472 4.97221661 4.79335989 -4.95220891 14.723242 4.63693606"></polyline>
                            </g>
                            <g id="Clipped" transform="translate(15.460495, 19.704553)">
                                <mask id="mask-15" fill="white">
                                    <use xlink:href="#path-14"></use>
                                </mask>
                                <g id="n"></g>
                                <polyline id="Shape" fill="url(#linearGradient-16)" fill-rule="nonzero" mask="url(#mask-15)" points="-4.58115701 4.63693606 5.34872514 -4.95220891 14.9330198 4.97221661 5.00283445 14.5616647"></polyline>
                            </g>
                            <g id="Clipped" transform="translate(5.759792, 6.669233)">
                                <mask id="mask-18" fill="white">
                                    <use xlink:href="#path-17"></use>
                                </mask>
                                <g id="q"></g>
                                <polyline id="Shape" fill="url(#linearGradient-19)" fill-rule="nonzero" mask="url(#mask-18)" points="-1.6961073 0.844264312 17.6880194 -5.90590927 21.5385922 5.15198276 2.15476866 11.9024595"></polyline>
                            </g>
                            <g id="Clipped" transform="translate(15.763642, 17.279377)">
                                <mask id="mask-21" fill="white">
                                    <use xlink:href="#path-20"></use>
                                </mask>
                                <g id="t"></g>
                                <polyline id="Shape" fill="url(#linearGradient-22)" fill-rule="nonzero" mask="url(#mask-21)" points="-1.07738433 2.49247439 0.483822564 -0.612660027 3.00843053 0.656616337 1.44722364 3.76175075"></polyline>
                            </g>
                            <g id="Clipped" transform="translate(15.157349, 20.007700)">
                                <mask id="mask-24" fill="white">
                                    <use xlink:href="#path-23"></use>
                                </mask>
                                <g id="w"></g>
                                <polyline id="Shape" fill="url(#linearGradient-25)" fill-rule="nonzero" mask="url(#mask-24)" points="0.75544225 0.598825912 0.122774523 0.491443362 0.157636425 0.0988259123 0.790304151 0.206208463"></polyline>
                            </g>
                            <g id="Clipped" transform="translate(15.157349, 14.247908)">
                                <mask id="mask-27" fill="white">
                                    <use xlink:href="#path-26"></use>
                                </mask>
                                <g id="z"></g>
                                <polyline id="Shape" fill="url(#linearGradient-28)" fill-rule="nonzero" mask="url(#mask-27)" points="0.0930661199 0.0748773016 0.777571979 -0.104888852 0.876701038 0.272529126 0.191588885 0.451385839"></polyline>
                            </g>
                            <g id="Clipped" transform="translate(15.763642, 14.247908)">
                                <mask id="mask-30" fill="white">
                                    <use xlink:href="#path-29"></use>
                                </mask>
                                <g id="C"></g>
                                <polyline id="Shape" fill="url(#linearGradient-31)" fill-rule="nonzero" mask="url(#mask-30)" points="0.533538668 3.69536157 -0.998262973 0.676017744 1.45358972 -0.568400569 2.98599766 2.45154955"></polyline>
                            </g>
                            <g id="Clipped" transform="translate(19.704553, 12.429026)">
                                <mask id="mask-33" fill="white">
                                    <use xlink:href="#path-32"></use>
                                </mask>
                                <g id="F"></g>
                                <polyline id="Shape" fill="url(#linearGradient-34)" fill-rule="nonzero" mask="url(#mask-33)" points="4.05004352 1.65124155 1.26867007 4.16432993 -1.2404774 1.38750368 1.54089605 -1.1255847"></polyline>
                            </g>
                            <g id="Clipped" transform="translate(21.523435, 14.247908)">
                                <mask id="mask-36" fill="white">
                                    <use xlink:href="#path-35"></use>
                                </mask>
                                <g id="I"></g>
                                <polyline id="Shape" fill="url(#linearGradient-37)" fill-rule="nonzero" mask="url(#mask-36)" points="-0.25312772 0.410764145 0.833654168 -0.534144961 1.76522481 0.537479578 0.678139772 1.48238868"></polyline>
                            </g>
                            <g id="Clipped" transform="translate(22.736023, 14.247908)">
                                <mask id="mask-39" fill="white">
                                    <use xlink:href="#path-38"></use>
                                </mask>
                                <g id="L"></g>
                                <polyline id="Shape" fill="url(#linearGradient-40)" fill-rule="nonzero" mask="url(#mask-39)" points="1.54301808 1.89466856 -0.374083361 0.896708738 0.478972213 -0.741194342 2.39607365 0.256765484"></polyline>
                            </g>
                            <g id="Clipped" transform="translate(22.432876, 12.429026)">
                                <mask id="mask-42" fill="white">
                                    <use xlink:href="#path-41"></use>
                                </mask>
                                <g id="O"></g>
                                <polyline id="Shape" fill="url(#linearGradient-43)" fill-rule="nonzero" mask="url(#mask-42)" points="0.228269669 -0.438653666 2.46306913 0.282836123 2.03199414 1.61668279 -0.202199029 0.895193003"></polyline>
                            </g>
                            <g id="Clipped" transform="translate(21.826582, 19.401406)">
                                <mask id="mask-45" fill="white">
                                    <use xlink:href="#path-44"></use>
                                </mask>
                                <g id="R"></g>
                                <polyline id="Shape" fill="url(#linearGradient-46)" fill-rule="nonzero" mask="url(#mask-45)" points="4.47384299 1.39568865 1.66367057 4.14826314 -1.08708504 1.33960646 1.72369367 -1.41296803"></polyline>
                            </g>
                            <g id="Clipped" transform="translate(19.704553, 21.220288)">
                                <mask id="mask-48" fill="white">
                                    <use xlink:href="#path-47"></use>
                                </mask>
                                <g id="U"></g>
                                <polyline id="Shape" fill="url(#linearGradient-49)" fill-rule="nonzero" mask="url(#mask-48)" points="0.320123201 -0.431681286 2.56644225 0.217053231 2.20175644 1.47935721 -0.0445626046 0.831228992"></polyline>
                            </g>
                            <g id="Clipped" transform="translate(19.704553, 19.098259)">
                                <mask id="mask-51" fill="white">
                                    <use xlink:href="#path-50"></use>
                                </mask>
                                <g id="X"></g>
                                <polyline id="Shape" fill="url(#linearGradient-52)" fill-rule="nonzero" mask="url(#mask-51)" points="1.72915032 2.07473786 -0.274044861 1.10163609 0.521715936 -0.536570137 2.52491111 0.435925343"></polyline>
                            </g>
                            <g id="Clipped" transform="translate(21.523435, 19.098259)">
                                <mask id="mask-54" fill="white">
                                    <use xlink:href="#path-53"></use>
                                </mask>
                                <g id="aa"></g>
                                <polyline id="Shape" fill="url(#linearGradient-55)" fill-rule="nonzero" mask="url(#mask-54)" points="-0.246761634 0.735737697 0.907318882 -0.325276699 1.96469551 0.824559759 0.810918145 1.88557415"></polyline>
                            </g>
                            <g id="Clipped" transform="translate(19.704553, 15.157349)">
                                <mask id="mask-57" fill="white">
                                    <use xlink:href="#path-56"></use>
                                </mask>
                                <g id="ad"></g>
                                <polyline id="Shape" fill="url(#linearGradient-58)" fill-rule="nonzero" mask="url(#mask-57)" points="2.20569736 -1.39053515 5.15925829 2.85958537 1.09951406 5.68036793 -1.85404687 1.4308537"></polyline>
                            </g>
                            <g id="Clipped" transform="translate(21.523435, 15.157349)">
                                <mask id="mask-60" fill="white">
                                    <use xlink:href="#path-59"></use>
                                </mask>
                                <g id="ag"></g>
                                <polyline id="Shape" fill="url(#linearGradient-61)" fill-rule="nonzero" mask="url(#mask-60)" points="2.3260467 -1.55514396 5.50727101 2.7919836 1.32899632 5.84952394 -1.85222799 1.50300268"></polyline>
                            </g>
                            <g id="Clipped">
                                <mask id="mask-63" fill="white">
                                    <use xlink:href="#path-62"></use>
                                </mask>
                                <g id="aj"></g>
                                <polyline id="Shape" fill="#8F4A02" fill-rule="nonzero" mask="url(#mask-63)" points="15.3058905 25.8281219 13.4063716 25.8281219 13.2699555 26.0531219 15.4420035 26.0531219"></polyline>
                            </g>
                            <g id="Clipped" transform="translate(15.157349, 21.826582)">
                                <mask id="mask-65" fill="white">
                                    <use xlink:href="#path-64"></use>
                                </mask>
                                <g id="al"></g>
                                <polyline id="Shape" fill="url(#linearGradient-66)" fill-rule="nonzero" mask="url(#mask-65)" points="0.168549715 -0.125199699 1.03979411 0.00970070305 0.982802477 0.377417978 0.111558085 0.242517576"></polyline>
                            </g>
                            <g id="Clipped" transform="translate(16.066789, 16.976230)">
                                <mask id="mask-68" fill="white">
                                    <use xlink:href="#path-67"></use>
                                </mask>
                                <g id="ao"></g>
                                <polyline id="Shape" fill="url(#linearGradient-69)" fill-rule="nonzero" mask="url(#mask-68)" points="5.822847 1.91982976 2.37606595 6.73289421 -2.18205189 3.46951707 1.26412287 -1.34415367"></polyline>
                            </g>
                            <g id="Clipped" transform="translate(13.035320, 12.429026)">
                                <mask id="mask-71" fill="white">
                                    <use xlink:href="#path-70"></use>
                                </mask>
                                <g id="ar"></g>
                                <polyline id="Shape" fill="url(#linearGradient-72)" fill-rule="nonzero" mask="url(#mask-71)" points="3.126961 0.974617509 0.40318547 1.67943421 0.0375902243 0.264647305 2.76136575 -0.439866254"></polyline>
                            </g>
                            <g id="Clipped" transform="translate(15.763642, 12.429026)">
                                <mask id="mask-74" fill="white">
                                    <use xlink:href="#path-73"></use>
                                </mask>
                                <g id="au"></g>
                                <polyline id="Shape" fill="url(#linearGradient-75)" fill-rule="nonzero" mask="url(#mask-74)" points="2.4615534 -1.55756913 6.09476984 3.07694175 1.5909153 6.60860395 -2.04321058 1.97439622"></polyline>
                            </g>
                            <g id="Group">
                                <g id="Clipped">
                                    <mask id="mask-77" fill="white">
                                        <use xlink:href="#path-76"></use>
                                    </mask>
                                    <g id="ax"></g>
                                    <path d="M8.63786977,13.0602427 L6.73956344,13.0602427 L6.6031473,12.8352427 L8.77367961,12.8352427 L8.63786977,13.0602427 Z M12.4320572,13.0602427 L10.5367824,13.0602427 L10.4003663,12.8352427 L12.5684734,12.8352427 L12.4320572,13.0602427 Z" id="Shape" fill="#FFC20E" fill-rule="nonzero" mask="url(#mask-77)"></path>
                                </g>
                                <g id="Clipped">
                                    <mask id="mask-79" fill="white">
                                        <use xlink:href="#path-78"></use>
                                    </mask>
                                    <g id="ax"></g>
                                    <path d="M5.77100887,19.7045531 L5.77100887,12.3550579 L5.90742501,12.415081 L5.90742501,19.7036436 L5.77100887,19.7036436 L5.77100887,19.7045531 Z M24.6752539,15.3825867 L24.6752539,13.3284628 L24.5388378,13.3957615 L24.5388378,15.0463967 L24.6752539,15.3822836 L24.6752539,15.3825867 Z M8.77367961,19.0239881 L8.77367961,12.8352427 L8.63726348,12.9716589 L8.63726348,19.023685 L8.77367961,19.023685 L8.77367961,19.0239881 Z" id="Shape" fill="#D78817" fill-rule="nonzero" mask="url(#mask-79)"></path>
                                </g>
                                <g id="Clipped">
                                    <mask id="mask-81" fill="white">
                                        <use xlink:href="#path-80"></use>
                                    </mask>
                                    <g id="ax"></g>
                                    <path d="M25.4552511,19.7045531 L25.4552511,7.25127553 L25.5916672,7.12698527 L25.5916672,19.7045531 L25.4552511,19.7045531 Z M19.8537014,19.3286508 L19.8537014,21.4585614 L19.9901175,21.381259 L19.9901175,19.6333135 L19.8537014,19.3292571 L19.8537014,19.3286508 Z M10.5364792,20.1277462 L10.5364792,12.9716589 L10.4000631,12.8352427 L10.4000631,20.0531721 L10.5364792,20.1277462 Z M6.73986659,18.9394101 L6.73986659,12.9716589 L6.60345045,12.8352427 L6.60345045,18.9397133 L6.73986659,18.9397133 L6.73986659,18.9394101 Z" id="Shape" fill="#D89016" fill-rule="nonzero" mask="url(#mask-81)"></path>
                                </g>
                            </g>
                            <g id="Clipped" transform="translate(6.366086, 18.795112)">
                                <mask id="mask-83" fill="white">
                                    <use xlink:href="#path-82"></use>
                                </mask>
                                <g id="az"></g>
                                <polyline id="Shape" fill="url(#linearGradient-84)" fill-rule="nonzero" mask="url(#mask-83)" points="1.83009826 -1.33566555 4.78487178 1.84434617 1.61243873 4.7921473 -1.34263793 1.61213559"></polyline>
                            </g>
                            <g id="Clipped" transform="translate(9.397556, 20.917141)">
                                <mask id="mask-86" fill="white">
                                    <use xlink:href="#path-85"></use>
                                </mask>
                                <g id="aC"></g>
                                <polyline id="Shape" fill="url(#linearGradient-87)" fill-rule="nonzero" mask="url(#mask-86)" points="3.38857683 1.13376967 0.361654335 1.91649515 -0.0445626046 0.347406428 2.98266304 -0.435319049"></polyline>
                            </g>
                            <g id="Clipped" transform="translate(9.397556, 20.007700)">
                                <mask id="mask-89" fill="white">
                                    <use xlink:href="#path-88"></use>
                                </mask>
                                <g id="aF"></g>
                                <polyline id="Shape" fill="url(#linearGradient-90)" fill-rule="nonzero" mask="url(#mask-89)" points="0.169762303 0.0624482759 1.08769133 -0.16309307 1.21016271 0.334674255 0.291627385 0.560518748"></polyline>
                            </g>
                            <g id="Clipped" transform="translate(8.488115, 18.795112)">
                                <mask id="mask-92" fill="white">
                                    <use xlink:href="#path-91"></use>
                                </mask>
                                <g id="aI"></g>
                                <polyline id="Shape" fill="url(#linearGradient-93)" fill-rule="nonzero" mask="url(#mask-92)" points="0.498676766 2.04169484 -0.487157181 0.694812856 0.801217442 -0.247974222 1.78705139 1.09890777"></polyline>
                            </g>
                            <g id="Group">
                                <g id="Clipped">
                                    <mask id="mask-95" fill="white">
                                        <use xlink:href="#path-94"></use>
                                    </mask>
                                    <g id="aL"></g>
                                    <polyline id="Shape" fill="#D78817" fill-rule="nonzero" mask="url(#mask-95)" points="13.2696523 13.3799978 13.2696523 25.964538 13.4946523 25.8281219 13.4946523 13.454572"></polyline>
                                </g>
                                <g id="Clipped">
                                    <mask id="mask-97" fill="white">
                                        <use xlink:href="#path-96"></use>
                                    </mask>
                                    <g id="aL"></g>
                                    <path d="M15.4423067,20.1811001 L15.4423067,14.5346846 L15.3058905,14.44465 L15.3058905,20.2781071 L15.4423067,20.1811001 Z M15.4423067,22.0060449 L15.4423067,25.9651443 L15.3058905,25.8287282 L15.3058905,21.8302196 L15.4423067,22.0060449 Z M12.5684734,21.2809173 L12.5684734,12.8352427 L12.4320572,12.9716589 L12.4320572,21.208162 L12.5684734,21.2809173 Z" id="Shape" fill="#BF7312" fill-rule="nonzero" mask="url(#mask-97)"></path>
                                </g>
                            </g>
                        </g>
                    </g>
                </g>
            </g>
        </g>
    </g>
</svg>