<?xml version="1.0" encoding="UTF-8"?>
<svg width="78px" height="38px" viewBox="0 0 78 38" version="1.1" xmlns="http://www.w3.org/2000/svg" xmlns:xlink="http://www.w3.org/1999/xlink">
    <!-- Generator: Sketch 51.3 (57544) - http://www.bohemiancoding.com/sketch -->
    <title>amazon</title>
    <desc>Created with Sketch.</desc>
    <defs></defs>
    <g id="Page-1" stroke="none" stroke-width="1" fill="none" fill-rule="evenodd">
        <g id="Desktop-HD-Copy-3" transform="translate(-630.000000, -2415.000000)" fill-rule="nonzero">
            <g id="FOOTER" transform="translate(0.000000, 2268.000000)">
                <g id="Shop-Service" transform="translate(630.000000, 107.000000)">
                    <g id="Group-2" transform="translate(0.000000, 40.000000)">
                        <g id="amazon">
                            <rect id="Rectangle" fill="#FFFFFF" x="0" y="0" width="78" height="38"></rect>
                            <g id="amazon-payments" transform="translate(10.140000, 7.916667)">
                                <path d="M30.108,17.1395833 C30.108,17.1395833 29.9598,16.0154167 29.172,15.9441667 C28.7027484,15.9036434 28.2391582,16.0710692 27.9006,16.4033333 L27.729,15.9441667 L26.9958,16.2291667 L27.1284,16.50625 L27.1284,21.4304167 L27.9942,21.20875 L27.9942,19.68875 C27.9942,19.68875 28.3062,19.9895833 29.3046,19.7995833 C30.303,19.6095833 30.108,17.1395833 30.108,17.1395833 Z M29.2656,18.4933333 C29.1954,18.92875 28.977,19.2058333 28.5714,19.2058333 C28.3726418,19.2243742 28.1744431,19.1648752 28.0176,19.0395833 L28.0176,16.9495833 C28.509,16.4666667 28.9458,16.6725 29.0784,16.9495833 C29.2573426,17.4426086 29.321415,17.9709827 29.2656,18.4933333 Z" id="Shape" fill="#000000"></path>
                                <path d="M34.1406,16.1025 L35.412,19.7916667 L35.8254,19.7916667 C35.8254,19.7916667 35.7474,20.7020833 35.3808,20.7416667 C35.0623836,20.7347883 34.7520043,20.6389122 34.4838,20.4645833 L34.2342,21.1533333 C34.6343402,21.4137151 35.1229647,21.4939817 35.5836,21.375 C36.3168,21.1691667 36.4806,20.3220833 36.8004,18.92875 C37.1202,17.5354167 37.5804,16.1025 37.5804,16.1025 L36.7146,15.9995833 L36.0048,19.35625 L35.139,16.03125 L34.1406,16.1025 Z" id="Shape" fill="#000000"></path>
                                <path d="M38.1342,16.1816667 L38.22,16.625 L38.2824,19.7441667 L39.1794,19.7441667 L39.1794,17.02875 C39.1794,17.02875 39.8112,16.2845833 40.17,17.02875 L40.17,19.7283333 L41.067,19.7283333 L41.067,16.98125 C41.2792478,16.7860984 41.5615398,16.6886836 41.847,16.7120833 C42.159,16.8070833 42.1356,17.0604167 42.1356,17.50375 L42.1356,19.7916667 L43.017,19.7916667 L43.017,16.9654167 C43.0502213,16.4964161 42.7636343,16.065008 42.3228,15.9204167 C41.5428,15.7145833 41.0124,16.53 41.0124,16.53 C40.9123212,16.1806699 40.5905534,15.9455319 40.2324,15.96 C39.8160579,15.9886338 39.4283747,16.1853747 39.156,16.50625 L38.8986,15.9283333 L38.1342,16.1816667 Z" id="Shape" fill="#000000"></path>
                                <path d="M46.9326,18.145 C47.0496,17.3533333 46.6518,15.77 45.435,15.96 C44.9418958,16.0217171 44.4954829,16.2864942 44.2004565,16.6922344 C43.90543,17.0979745 43.7877445,17.6089834 43.875,18.1054167 C43.953,19.0791667 44.3118,19.7995833 45.2556,19.8866667 C45.80254,19.9528554 46.3549542,19.8210964 46.8156,19.5145833 L46.566,18.905 C46.566,18.905 46.4022,19.1979167 45.6378,19.19 C44.7096,19.19 44.7252,18.1370833 44.7252,18.1370833 L46.956,18.1370833 L46.9326,18.145 Z M45.3726,16.5616667 C46.0824,16.5616667 45.9576,17.48 45.9576,17.48 L44.7564,17.48 C44.7564,17.48 44.6862,16.625 45.396,16.625 L45.3726,16.5616667 Z" id="Shape" fill="#000000"></path>
                                <path d="M47.6502,16.245 L47.8062,16.88625 L47.8062,19.7916667 L48.6798,19.7916667 L48.6798,16.98125 C48.845181,16.7588818 49.1190902,16.6489013 49.3896,16.69625 C49.6664683,16.748211 49.859005,17.005338 49.8342,17.29 L49.8342,19.7441667 L50.739,19.7441667 L50.739,16.8308333 C50.739,16.8308333 50.544,15.96 49.8264,15.96 C49.3617239,15.9847619 48.9214131,16.1786982 48.5862,16.50625 L48.4068,15.93625 L47.6502,16.245 Z" id="Shape" fill="#000000"></path>
                                <path d="M52.0494,15.0416667 L52.0494,16.0708333 L51.4176,16.0708333 L51.4176,16.6804167 L52.0728,16.6804167 L52.0728,18.8733333 C52.0728,18.8733333 52.0728,19.8233333 52.7904,19.8391667 C53.1968903,19.847638 53.6021859,19.7915438 53.9916,19.6729167 L53.8356,18.9525 C53.8356,18.9525 52.9386,19.4195833 52.923,18.8179167 C52.9074,18.21625 52.923,16.7279167 52.923,16.7279167 L53.7654,16.7279167 L53.9136,16.0233333 L52.923,16.0233333 L52.923,14.8991667 L52.0494,15.0416667 Z" id="Shape" fill="#000000"></path>
                                <path d="M56.6358,16.8308333 C56.7498978,16.664611 56.8515816,16.4899568 56.94,16.3083333 C56.6142727,16.0484877 56.2072359,15.9164002 55.7934,15.93625 C55.4601844,15.9145889 55.1321881,16.0285055 54.8819039,16.2528224 C54.6316198,16.4771393 54.4796563,16.793386 54.4596,17.1316667 L54.4596,17.2583333 C54.4596,17.9391667 55.068,18.0975 55.7544,18.3429167 C56.4408,18.5883333 56.1288,19.19 55.8246,19.2058333 C55.4031275,19.1283577 54.9921013,19.000814 54.6,18.8258333 L54.366,19.5066667 C54.7888918,19.7497834 55.2684799,19.8728411 55.7544,19.8629167 C56.3432956,19.9057403 56.8630641,19.4753764 56.94,18.88125 C57.0215785,18.4212205 56.7922435,17.9621557 56.3784,17.7570833 C55.7466,17.385 55.2318,17.4245833 55.2396,17.005 C55.2474,16.5854167 55.965,16.50625 56.6358,16.8308333 Z" id="Shape" fill="#000000"></path>
                                <path d="M33.6492,18.6595833 L33.6492,16.93375 C33.6173986,16.4831778 33.301904,16.1053259 32.8692,15.9995833 C32.2565754,15.9208682 31.6342841,15.999818 31.0596,16.2291667 L31.2624,16.88625 C31.6001029,16.7688722 31.9472051,16.6814609 32.2998,16.625 C32.565,16.625 32.8146,16.7991667 32.799,17.4720833 C32.799,17.4720833 31.5042,17.3770833 31.005,18.0816667 C30.829982,18.3100489 30.7521263,18.59994 30.7887463,18.8868746 C30.8253662,19.1738091 30.9734259,19.4339989 31.2,19.6095833 C31.2625338,19.6637367 31.3337701,19.7065822 31.4106,19.73625 C31.8848123,20.0158741 32.4880359,19.9127239 32.8458,19.4908333 C32.8458,19.4908333 33.0018,19.3325 33.0954,19.8629167 L33.8286,19.59375 C33.7026253,19.299293 33.6414043,18.9805042 33.6492,18.6595833 Z M32.76,18.1054167 L32.76,18.8970833 C32.76,18.8970833 32.7054,19.1979167 32.1984,19.2216667 C32.063873,19.2303286 31.9314854,19.1842606 31.8304946,19.0936435 C31.7295039,19.0030264 31.6682248,18.875321 31.6602,18.73875 L31.6602,18.6675 C31.6920894,18.3412998 31.9612377,18.0920285 32.2842,18.0895833 C32.4428374,18.0749578 32.6026472,18.0802758 32.76,18.1054167 Z" id="Shape" fill="#000000"></path>
                                <path d="M1.833,3.20625 L0.1872,2.86583333 C0.317704579,2.2264886 0.658827408,1.6513082 1.1544,1.235 C1.76281638,0.843024931 2.47923062,0.659854819 3.198,0.7125 C3.82739379,0.673635866 4.45717572,0.781975144 5.0388,1.02916667 C5.39439234,1.19996936 5.69076887,1.47594139 5.889,1.82083333 C6.0896569,2.39956068 6.17193302,3.01373932 6.1308,3.62583333 L6.084,6.00083333 C6.06973096,6.5037965 6.09843838,7.00706855 6.1698,7.505 C6.2390768,7.8583144 6.35175684,8.20141068 6.5052,8.52625 L4.68,8.52625 C4.6332,8.36791667 4.5786,8.14625 4.5084,7.87708333 C4.5084,7.75833333 4.4538,7.67916667 4.4382,7.63958333 C4.15411187,7.95422895 3.81234478,8.20968246 3.432,8.39166667 C3.08959709,8.55410883 2.71783684,8.64304872 2.34,8.65291667 C1.71519542,8.68482835 1.10526938,8.45268503 0.6552,8.01166667 C0.247345047,7.59014539 0.0250513652,7.01895909 0.039,6.42833333 C0.0326109609,6.02892654 0.13230056,5.63514226 0.3276,5.28833333 C0.50413535,4.95150455 0.775735012,4.6758425 1.1076,4.49666667 C1.56807589,4.27487299 2.05615725,4.11773577 2.5584,4.02958333 C3.16760521,3.91926092 3.76552312,3.75230786 4.3446,3.53083333 L4.3446,3.325 C4.35929264,3.0350027 4.26126535,2.75073552 4.0716,2.53333333 C3.77437341,2.33634456 3.41709489,2.25482479 3.0654,2.30375 C2.78953453,2.2881758 2.51605406,2.36311997 2.2854,2.5175 C2.07346494,2.69904517 1.91659707,2.93786645 1.833,3.20625 Z M4.3134,4.83708333 C3.94845891,4.96400804 3.57589986,5.06713482 3.198,5.14583333 C2.8462473,5.22193424 2.50904032,5.35562591 2.1996,5.54166667 C1.97045493,5.70084908 1.83331768,5.96441869 1.833,6.24625 C1.82429373,6.52637031 1.92851932,6.79797923 2.1216,6.99833333 C2.31121383,7.20299034 2.57813136,7.31538913 2.8548,7.30708333 C3.20353447,7.29648969 3.53754485,7.16200787 3.7986,6.92708333 C4.01276352,6.75910005 4.1685196,6.52613157 4.2432,6.26208333 C4.29788439,5.93794279 4.32139494,5.60917456 4.3134,5.28041667 L4.3134,4.87666667 L4.3134,4.83708333 Z" id="Shape" fill="#000000"></path>
                                <path d="M8.034,0.87875 L9.594,0.87875 L9.594,1.91583333 C10.039971,1.16708102 10.8379641,0.708121348 11.7,0.704583333 C12.0899721,0.695088066 12.4744218,0.799507786 12.8076,1.00541667 C13.1480498,1.22691441 13.4187552,1.54288192 13.5876,1.91583333 C13.8344497,1.55288592 14.1499734,1.24340732 14.5158,1.00541667 C14.8386656,0.808959513 15.2079584,0.704995854 15.5844,0.704583333 C16.0171515,0.689525433 16.444202,0.808237749 16.809,1.045 C17.1524986,1.29250138 17.4093291,1.64468584 17.5422,2.05041667 C17.6904775,2.56404787 17.753737,3.09909523 17.7294,3.63375 L17.7294,8.51041667 L15.9198,8.51041667 L15.9198,4.1325 C15.956389,3.63763759 15.8981141,3.14026859 15.7482,2.66791667 C15.601,2.37473942 15.2904683,2.20454414 14.9682,2.24041667 C14.7183861,2.24173015 14.4774291,2.33449468 14.2896,2.50166667 C14.0615111,2.69461426 13.8979993,2.95461433 13.8216,3.24583333 C13.7047072,3.76477687 13.6574794,4.29737865 13.6812,4.82916667 L13.6812,8.49458333 L11.9808,8.49458333 L11.9808,4.31458333 C12.0056208,3.83548734 11.9794697,3.35507158 11.9028,2.88166667 C11.8679576,2.6855494 11.7690386,2.50706295 11.622,2.375 C11.4622296,2.27030859 11.2735979,2.22036432 11.0838,2.2325 C10.8159714,2.23130839 10.5553344,2.32041506 10.3428,2.48583333 C10.1196906,2.67189331 9.95890878,2.92358797 9.8826,3.20625 C9.77174191,3.7260813 9.72717677,4.25821917 9.75,4.78958333 L9.75,8.49458333 L8.034,8.49458333 L8.034,0.87875 Z" id="Shape" fill="#000000"></path>
                                <path d="M20.7012,3.20625 L19.0632,2.86583333 C19.1882623,2.22434087 19.5304101,1.64743221 20.0304,1.235 C20.6354817,0.841382235 21.3491353,0.655443659 22.0662,0.704583333 C22.6981029,0.666189585 23.3303154,0.77448808 23.9148,1.02125 C24.2706616,1.18862526 24.565445,1.46565538 24.7572,1.81291667 C24.9620579,2.39060721 25.0444543,3.0056834 24.999,3.61791667 L24.999,5.99291667 C24.984731,6.49587983 25.0134384,6.99915189 25.0848,7.49708333 C25.1549474,7.84915252 25.2648739,8.19183402 25.4124,8.51833333 L23.5638,8.51833333 C23.4991121,8.32074858 23.4444404,8.11992981 23.4,7.91666667 C23.3827529,7.83575918 23.359281,7.75634907 23.3298,7.67916667 C23.0433428,7.98906551 22.7020083,8.24151011 22.3236,8.42333333 C21.9679955,8.59479868 21.5784655,8.68145213 21.1848,8.67666667 C20.5609938,8.71164261 19.950863,8.48228828 19.5,8.04333333 C19.0966189,7.61887571 18.8750947,7.0496664 18.8838,6.46 C18.869806,6.04315152 18.9668107,5.63018521 19.1646,5.26458333 C19.3411353,4.92775455 19.612735,4.6520925 19.9446,4.47291667 C20.4050759,4.25112299 20.8931572,4.09398577 21.3954,4.00583333 C22.0046052,3.89551092 22.6025231,3.72855786 23.1816,3.50708333 L23.1816,3.30125 C23.1992747,3.01222411 23.1039876,2.7277762 22.9164,2.50958333 C22.618518,2.32125077 22.2667696,2.24036577 21.918,2.28 C21.6421345,2.2644258 21.3686541,2.33936997 21.138,2.49375 C20.9294112,2.68494362 20.7780419,2.93185435 20.7012,3.20625 Z M23.1816,4.83708333 C22.8189757,4.9629167 22.4490794,5.06602746 22.074,5.14583333 C21.7166906,5.21972062 21.3740018,5.35349545 21.06,5.54166667 C20.8308549,5.70084908 20.6937177,5.96441869 20.6934,6.24625 C20.6846937,6.52637031 20.7889193,6.79797923 20.982,6.99833333 C21.1830164,7.21507743 21.4694813,7.32846982 21.762,7.30708333 C22.1080276,7.29465981 22.4389866,7.16029611 22.698,6.92708333 C22.914666,6.76150285 23.071044,6.52760412 23.1426,6.26208333 C23.1972844,5.93794279 23.2207949,5.60917456 23.2128,5.28041667 L23.2128,4.87666667 L23.1816,4.83708333 Z" id="Shape" fill="#000000"></path>
                                <path d="M32.5962,4.57583333 C32.5971814,3.90518118 32.7436492,3.2429751 33.0252,2.63625 C33.5167757,1.45816905 34.6585056,0.696042592 35.919,0.704583333 C36.8477959,0.683039527 37.7343747,1.09790065 38.3214,1.82875 C38.9624032,2.62661806 39.295141,3.63413363 39.2574,4.66291667 C39.291159,5.69594393 38.9590894,6.70705322 38.3214,7.51291667 C37.74243,8.24097568 36.8640393,8.65604818 35.9424,8.63708333 C35.3464923,8.63528577 34.7619733,8.47125024 34.2498,8.16208333 C33.7115563,7.8383221 33.2841275,7.35476256 33.0252,6.77666667 C32.7278272,6.08293574 32.581495,5.33222977 32.5962,4.57583333 Z M34.3434,4.68666667 C34.3121316,5.30305239 34.4761384,5.91340551 34.8114,6.42833333 C35.0662492,6.80288978 35.4861179,7.02648934 35.9346,7.02648934 C36.3830821,7.02648934 36.8029508,6.80288978 37.0578,6.42833333 C37.3972393,5.90970946 37.5589681,5.29206864 37.518,4.67083333 C37.5561156,4.05980806 37.3943377,3.45311168 37.0578,2.945 C36.8553178,2.64233777 36.5425295,2.43385802 36.188421,2.36554137 C35.8343125,2.29722473 35.4679733,2.37468326 35.1702,2.58083333 C35.0283651,2.6773359 34.9064804,2.80104364 34.8114,2.945 C34.4769585,3.45970179 34.3180393,4.07151491 34.359,4.68666667 L34.3434,4.68666667 Z" id="Shape" fill="#000000"></path>
                                <path d="M45.8718,8.49458333 L44.1948,8.49458333 L44.1948,4.59958333 C44.2202888,4.06927891 44.1836321,3.53777863 44.0856,3.01625 C44.0310279,2.79552803 43.9079709,2.59846739 43.7346,2.45416667 C43.5738183,2.32277745 43.3714318,2.25524418 43.1652,2.26416667 C42.8790058,2.26372038 42.6021838,2.3676765 42.3852,2.55708333 C42.1508196,2.74912123 41.9839148,3.01294284 41.9094,3.30916667 C41.7988609,3.88521816 41.754365,4.47231674 41.7768,5.05875 L41.7768,8.51041667 L40.1076,8.51041667 L40.1076,0.87875 L41.6676,0.87875 L41.6676,2.00291667 C42.0838489,1.22511343 42.8783398,0.732832469 43.7502,0.7125 C44.101729,0.711183567 44.4487872,0.792471857 44.7642,0.95 C45.0445035,1.09116038 45.2837548,1.3039776 45.4584,1.5675 C45.6203749,1.82578968 45.7316165,2.11342984 45.786,2.41458333 C45.8559407,2.86221061 45.8872595,3.31517897 45.8796,3.76833333 L45.8796,8.51833333 L45.8718,8.49458333 Z" id="Shape" fill="#000000"></path>
                                <path d="M6.318,9.69 C6.318,9.69 12.0276,12.9279167 18.2754,12.9279167 C21.8481712,12.8171919 25.3855363,12.1743567 28.7742,11.02 C28.7742,11.02 25.74,14.5508333 18.0102,14.5508333 C10.2804,14.5508333 6.318,9.69 6.318,9.69 Z" id="Shape" fill="#F6BA00"></path>
                                <path d="M29.3592,6.72916667 L28.4934,6.77666667 L29.3436,5.6525 L31.7616,2.27208333 L31.7616,0.87875 L26.52,0.87875 L26.52,2.54125 L28.743,2.54125 C29.0026675,2.56012331 29.2633325,2.56012331 29.523,2.54125 C29.3358,2.76291667 29.0472,3.15083333 28.665,3.68916667 L26.325,6.95875 L26.325,8.54208333 L27.5184,8.54208333 C28.602344,8.20021636 29.7432215,8.08442217 30.8724,8.20166667 L31.6134,8.28083333 L31.6134,8.54208333 L31.98,8.54208333 L31.98,6.72916667 L29.3592,6.72916667 Z" id="Shape" fill="#000000"></path>
                                <path d="M28.86,13.79875 C28.86,13.79875 31.1532,12.70625 30.7476,9.08833333 C30.7476,9.08833333 27.924,8.74791667 26.442,10.1808333 L29.601,10.2441667 L28.86,13.79875 Z" id="Shape" fill="#F6BA00"></path>
                            </g>
                        </g>
                    </g>
                </g>
            </g>
        </g>
    </g>
</svg>