<?xml version="1.0" encoding="UTF-8"?>
<svg width="78px" height="38px" viewBox="0 0 78 38" version="1.1" xmlns="http://www.w3.org/2000/svg" xmlns:xlink="http://www.w3.org/1999/xlink">
    <!-- Generator: Sketch 51.3 (57544) - http://www.bohemiancoding.com/sketch -->
    <title>mastercard</title>
    <desc>Created with Sketch.</desc>
    <defs></defs>
    <g id="Page-1" stroke="none" stroke-width="1" fill="none" fill-rule="evenodd">
        <g id="Desktop-HD-Copy-3" transform="translate(-713.000000, -2415.000000)" fill-rule="nonzero">
            <g id="FOOTER" transform="translate(0.000000, 2268.000000)">
                <g id="Shop-Service" transform="translate(630.000000, 107.000000)">
                    <g id="Group-2" transform="translate(0.000000, 40.000000)">
                        <g id="mastercard" transform="translate(83.000000, 0.000000)">
                            <rect id="Rectangle" fill="#FFFFFF" x="0" y="0" width="78" height="38"></rect>
                            <g transform="translate(23.400000, 7.125000)">
                                <path d="M6.1464,24.4229167 L6.1464,22.8 C6.16350804,22.5458115 6.08014079,22.2951779 5.91473527,22.1035278 C5.74932974,21.9118777 5.51551495,21.7950026 5.265,21.77875 L5.148,21.77875 C4.78903804,21.7551545 4.44568313,21.930915 4.251,22.2379167 C4.07929994,21.9384861 3.75731386,21.761341 3.4164,21.77875 C3.10727582,21.7498735 2.80755498,21.8958914 2.6364,22.15875 L2.6364,21.8420833 L2.0904,21.8420833 L2.0904,24.4229167 L2.6442,24.4229167 L2.6442,22.9979167 C2.60262445,22.6704054 2.82889485,22.3700876 3.1512,22.325 L3.2682,22.325 C3.6348,22.325 3.822,22.5704167 3.822,23.0058333 L3.822,24.43875 L4.3758,24.43875 L4.3758,22.9979167 C4.35594378,22.8393587 4.39906348,22.6792979 4.4956444,22.5530529 C4.59222531,22.4268079 4.73432929,22.3447551 4.8906,22.325 L4.9998,22.325 C5.3742,22.325 5.5536,22.5704167 5.5536,23.0058333 L5.5536,24.43875 L6.1464,24.4229167 Z M14.3988,21.8420833 L13.494,21.8420833 L13.494,21.0504167 L12.9324,21.0504167 L12.9324,21.8420833 L12.4332,21.8420833 L12.4332,22.3566667 L12.948,22.3566667 L12.948,23.5441667 C12.948,24.1379167 13.1742,24.4941667 13.8294,24.4941667 C14.0722421,24.496946 14.3106687,24.4281981 14.5158,24.29625 L14.3598,23.8133333 C14.2115654,23.9057441 14.0422571,23.9575691 13.8684,23.96375 C13.6032,23.96375 13.5018,23.7895833 13.5018,23.5283333 L13.5018,22.3566667 L14.4066,22.3566667 L14.3988,21.8420833 Z M19.0788,21.77875 C18.8024832,21.7668733 18.5430924,21.9138151 18.408,22.15875 L18.408,21.8420833 L17.94,21.8420833 L17.94,24.4229167 L18.486,24.4229167 L18.486,22.9583333 C18.486,22.5308333 18.6732,22.2933333 19.0242,22.2933333 C19.1413164,22.2944785 19.2573818,22.3158969 19.3674,22.3566667 L19.539,21.8183333 C19.4094965,21.7793261 19.2760358,21.755422 19.1412,21.7470833 L19.0788,21.77875 Z M11.9496,22.0479167 C11.6395959,21.8582304 11.2817158,21.7646704 10.92,21.77875 C10.2804,21.77875 9.8592,22.0875 9.8592,22.5704167 C9.8592,23.0533333 10.1634,23.25125 10.7328,23.3620833 L10.998,23.4016667 C11.3022,23.4016667 11.4504,23.5283333 11.4504,23.6708333 C11.4504,23.8133333 11.2476,23.9795833 10.8654,23.9795833 C10.5770898,23.9994514 10.2907803,23.9184209 10.0542,23.75 L9.789,24.1933333 C10.1129415,24.4168474 10.4971559,24.5330061 10.8888,24.5258333 C11.622,24.5258333 12.051,24.1775 12.051,23.6866667 C12.051,23.1958333 11.7156,22.99 11.1618,22.895 L10.8966,22.895 C10.6548,22.895 10.4676,22.8158333 10.4676,22.6416667 C10.4676,22.4675 10.647,22.3408333 10.9512,22.3408333 C11.2250441,22.3495602 11.492708,22.4256271 11.7312,22.5625 L11.9496,22.0479167 Z M26.7696,21.77875 C26.4932832,21.7668733 26.2338924,21.9138151 26.0988,22.15875 L26.0988,21.8420833 L25.5528,21.8420833 L25.5528,24.4229167 L26.0988,24.4229167 L26.0988,22.9583333 C26.0988,22.5308333 26.286,22.2933333 26.637,22.2933333 C26.7541164,22.2944785 26.8701818,22.3158969 26.9802,22.3566667 L27.1518,21.8183333 C27.0222965,21.7793261 26.8888358,21.755422 26.754,21.7470833 L26.7696,21.77875 Z M19.6482,23.1245833 C19.6334298,23.4703253 19.7552674,23.8077448 19.9866601,24.0619219 C20.2180528,24.3160991 20.5398498,24.4659972 20.8806,24.4783333 L21.06,24.4783333 C21.393367,24.5008106 21.7226036,24.3931994 21.9804,24.1775 L21.6762,23.75 C21.4825061,23.8982909 21.2479435,23.981339 21.0054,23.9875 C20.5552327,23.9875 20.1903,23.6171089 20.1903,23.1602083 C20.1903,22.7033078 20.5552327,22.3329167 21.0054,22.3329167 C21.2479435,22.3390777 21.4825061,22.4221257 21.6762,22.5704167 L21.9414,22.11125 C21.6982586,21.8916247 21.3854485,21.7680008 21.06,21.7629167 C20.7196762,21.7344578 20.3821599,21.8444382 20.1217588,22.0686444 C19.8613576,22.2928506 19.6994207,22.612901 19.6716,22.9583333 L19.6716,23.085 L19.6482,23.1245833 Z M24.8196,23.1245833 L24.8196,21.8420833 L24.2658,21.8420833 L24.2658,22.1666667 C24.0825422,21.9183178 23.7913402,21.7764501 23.4858,21.7866667 C22.7534704,21.7866667 22.1598,22.3892168 22.1598,23.1325 C22.1598,23.8757832 22.7534704,24.4783333 23.4858,24.4783333 C23.7894081,24.4877637 24.0792104,24.3495193 24.2658,24.10625 L24.2658,24.415 L24.8196,24.415 L24.8196,23.1245833 Z M22.7682,23.1245833 C22.785158,22.7420108 23.1000819,22.4432367 23.4773025,22.4518447 C23.8545231,22.4604527 24.1558985,22.7732905 24.1558985,23.15625 C24.1558985,23.5392095 23.8545231,23.8520473 23.4773025,23.8606553 C23.1000819,23.8692633 22.785158,23.5704892 22.7682,23.1879167 C22.7718473,23.1654564 22.7797972,23.1439395 22.7916,23.1245833 L22.7682,23.1245833 Z M16.0992,21.77875 C15.3668704,21.77875 14.7732,22.3813001 14.7732,23.1245833 C14.7732,23.8678666 15.3668704,24.4704167 16.0992,24.4704167 C16.4830041,24.490898 16.8607494,24.3668583 17.16,24.1220833 L16.9494,23.75 C16.7364074,23.9165289 16.4771322,24.0107101 16.2084,24.0191667 C16.021593,24.0436215 15.8330142,23.9899831 15.6859341,23.8705591 C15.538854,23.7511351 15.4458996,23.5761782 15.4284,23.3858333 L17.3082,23.3858333 L17.3082,23.1720833 C17.3436786,22.8274189 17.232967,22.483716 17.0037389,22.2268871 C16.7745108,21.9700582 16.4484285,21.824374 16.107,21.82625 L16.0992,21.77875 Z M16.0992,22.2775 C16.4451573,22.2730583 16.7302848,22.551863 16.7388,22.9029167 L15.4128,22.9029167 C15.4337127,22.5449889 15.7304428,22.2683341 16.0836,22.2775 L16.0992,22.2775 Z M29.9442,23.1325 L29.9442,20.805 L29.4138,20.805 L29.4138,22.1666667 C29.2280262,21.9214461 28.938509,21.7803993 28.6338,21.7866667 C27.9014704,21.7866667 27.3078,22.3892168 27.3078,23.1325 C27.3078,23.8757832 27.9014704,24.4783333 28.6338,24.4783333 C28.9366281,24.4840019 29.2248546,24.3465093 29.4138,24.10625 L29.4138,24.415 L29.9442,24.415 L29.9442,23.1325 Z M30.8646,24.0429167 C30.8980201,24.0356427 30.9325799,24.0356427 30.966,24.0429167 C30.9945721,24.0539247 31.0209845,24.0700091 31.044,24.0904167 C31.0691921,24.1142664 31.0879829,24.1442365 31.0986,24.1775 C31.1292286,24.2398101 31.1292286,24.3131065 31.0986,24.3754167 C31.0877575,24.4063152 31.0688931,24.4336674 31.044,24.4545833 L30.966,24.51 C30.9325799,24.5172739 30.8980201,24.5172739 30.8646,24.51 C30.7609125,24.5081192 30.6672281,24.4467736 30.6228,24.3516667 C30.5995059,24.2878126 30.5995059,24.217604 30.6228,24.15375 C30.6363068,24.1219521 30.6547399,24.0925526 30.6774,24.0666667 C30.7032907,24.0462433 30.7322646,24.030203 30.7632,24.0191667 C30.7991538,24.010986 30.8364462,24.010986 30.8724,24.0191667 L30.8646,24.0429167 Z M30.8646,24.5020833 L30.9426,24.5020833 C30.966865,24.4915808 30.9882719,24.4752855 31.005,24.4545833 C31.0676478,24.3761265 31.0676478,24.2638735 31.005,24.1854167 L30.9426,24.1458333 L30.8646,24.1458333 L30.7866,24.1458333 L30.7242,24.1854167 C30.6548351,24.2613282 30.6548351,24.3786718 30.7242,24.4545833 C30.7394656,24.4767767 30.761334,24.4934233 30.7866,24.5020833 L30.8724,24.5020833 L30.8646,24.5020833 Z M30.8646,24.1775 C30.887518,24.1706827 30.911882,24.1706827 30.9348,24.1775 C30.9421678,24.1952154 30.9421678,24.2152013 30.9348,24.2329167 C30.9418246,24.2479474 30.9418246,24.265386 30.9348,24.2804167 C30.9173457,24.2878946 30.8976543,24.2878946 30.8802,24.2804167 L30.9582,24.3754167 L30.8958,24.3754167 L30.8256,24.2804167 L30.8256,24.3754167 L30.7788,24.3754167 L30.7788,24.1379167 L30.8646,24.1775 Z M30.8022,24.225 L30.8022,24.2883333 L30.8958,24.2883333 L30.8958,24.2408333 L30.8022,24.225 Z M27.924,23.1325 C27.924,22.6952746 28.2732179,22.3408333 28.704,22.3408333 C29.1347821,22.3408333 29.484,22.6952746 29.484,23.1325 C29.484,23.5697254 29.1347821,23.9241667 28.704,23.9241667 C28.2732179,23.9241667 27.924,23.5697254 27.924,23.1325 Z M9.2664,23.1325 L9.2664,21.8420833 L8.7126,21.8420833 L8.7126,22.1666667 C8.52764592,21.9204225 8.23758324,21.7791099 7.9326,21.7866667 C7.45886581,21.7866666 7.02111735,22.043181 6.78425025,22.4595833 C6.54738315,22.8759856 6.54738315,23.3890144 6.78425025,23.8054167 C7.02111735,24.221819 7.45886581,24.4783334 7.9326,24.4783333 C8.23568551,24.4852308 8.52442255,24.3474946 8.7126,24.10625 L8.7126,24.415 L9.2664,24.415 L9.2664,23.1325 Z M7.2072,23.1325 C7.23089302,22.6952746 7.5993179,22.3603276 8.0301,22.384375 C8.4608821,22.4084224 8.79089302,22.7823579 8.7672,23.2195833 C8.7672,23.6568088 8.4179821,24.01125 7.9872,24.01125 C7.5564179,24.01125 7.2072,23.6568088 7.2072,23.2195833 L7.2072,23.15625 L7.2072,23.1325 Z" id="Shape" fill="#231F20"></path>
                                <rect id="Rectangle-path" fill="#FF5F00" x="11.8092" y="2.20083333" width="8.3694" height="15.2633333"></rect>
                                <path d="M12.3396,9.8325 C12.3339572,6.85388861 13.680527,4.03869783 15.99,2.20083333 C12.0691087,-0.926169195 6.43895268,-0.47036452 3.05602838,3.24793838 C-0.326895926,6.96624128 -0.326895926,12.6987587 3.05602838,16.4170616 C6.43895268,20.1353645 12.0691087,20.5911692 15.99,17.4641667 C13.680527,15.6263022 12.3339572,12.8111114 12.3396,9.8325 Z" id="_Path_" fill="#EB001B"></path>
                                <path d="M31.4652,9.8325 C31.4664152,13.5496899 29.3757727,16.9410811 26.0816284,18.5656036 C22.787484,20.1901262 18.8685268,19.762397 15.99,17.4641667 C17.9847842,15.8730474 19.2748439,13.542592 19.5762015,10.9857979 C19.877559,8.42900376 19.1655114,5.8554572 17.5968,3.83166667 C17.1295664,3.22283317 16.5898612,2.67505543 15.99,2.20083333 C18.8685268,-0.0973969744 22.787484,-0.525126188 26.0816284,1.09939638 C29.3757727,2.72391894 31.4664152,6.11531009 31.4652,9.8325 Z" id="Shape" fill="#F79E1B"></path>
                                <path d="M30.5526,15.8333333 L30.5526,15.5245833 L30.6774,15.5245833 L30.6774,15.46125 L30.3576,15.46125 L30.3576,15.5245833 L30.498,15.5245833 L30.498,15.8333333 L30.5526,15.8333333 Z M31.2,15.8333333 L31.2,15.46125 L31.0986,15.46125 L30.9894,15.7304167 L30.8802,15.46125 L30.7944,15.46125 L30.7944,15.8333333 L30.8646,15.8333333 L30.8646,15.55625 L30.966,15.8016667 L31.0362,15.8016667 L31.1376,15.55625 L31.1376,15.8333333 L31.2,15.8333333 Z" id="Shape" fill="#F79E1B"></path>
                            </g>
                        </g>
                    </g>
                </g>
            </g>
        </g>
    </g>
</svg>