<?xml version="1.0" encoding="UTF-8"?>
<svg width="78px" height="38px" viewBox="0 0 78 38" version="1.1" xmlns="http://www.w3.org/2000/svg" xmlns:xlink="http://www.w3.org/1999/xlink">
    <!-- Generator: Sketch 51.3 (57544) - http://www.bohemiancoding.com/sketch -->
    <title>paypal</title>
    <desc>Created with Sketch.</desc>
    <defs></defs>
    <g id="Page-1" stroke="none" stroke-width="1" fill="none" fill-rule="evenodd">
        <g id="Desktop-HD-Copy-3" transform="translate(-796.000000, -2415.000000)" fill-rule="nonzero">
            <g id="FOOTER" transform="translate(0.000000, 2268.000000)">
                <g id="Shop-Service" transform="translate(630.000000, 107.000000)">
                    <g id="Group-2" transform="translate(0.000000, 40.000000)">
                        <g id="paypal" transform="translate(166.000000, 0.000000)">
                            <rect id="Rectangle" fill="#FFFFFF" x="0" y="0" width="78" height="38"></rect>
                            <g transform="translate(10.140000, 11.875000)" id="Shape">
                                <path d="M22.035,3.60208333 L18.8682,3.60208333 C18.6519132,3.59923254 18.4661451,3.75747712 18.4314,3.97416667 L17.16,12.2233333 C17.1487672,12.2999247 17.1705783,12.3777159 17.2198599,12.4368289 C17.2691414,12.4959419 17.341119,12.5306497 17.4174,12.5320833 L18.9306,12.5320833 C19.1494318,12.5343598 19.3361482,12.3719234 19.3674,12.1520833 L19.7106,9.9275 C19.7483391,9.71255316 19.932285,9.55586089 20.1474,9.55541667 L21.138,9.55541667 C23.2284,9.55541667 24.4296,8.52625 24.7494,6.49958333 C24.925121,5.78138458 24.7764419,5.02106564 24.3438,4.42541667 C23.7291671,3.82263078 22.8860363,3.52196476 22.035,3.60208333 Z M22.4016,6.61041667 C22.23,7.76625 21.3564,7.76625 20.5218,7.76625 L20.0382,7.76625 L20.3736,5.61291667 C20.393078,5.47989225 20.5063043,5.38187235 20.6388,5.38333333 L20.8572,5.38333333 C21.4266,5.38333333 21.9648,5.38333333 22.2456,5.71583333 C22.424072,5.97649161 22.4810827,6.30341982 22.4016,6.61041667 Z" fill="#253B80"></path>
                                <path d="M31.5042,6.57083333 L29.9442,6.57083333 C29.8146662,6.57327454 29.7058301,6.67034895 29.6868,6.80041667 L29.6166,7.22791667 L29.5152,7.0775 C29.0471981,6.59290021 28.3857006,6.3535345 27.7212,6.42833333 C26.0154447,6.48304392 24.5994053,7.78290674 24.375,9.5 C24.2169187,10.3404461 24.430841,11.2089338 24.96,11.875 C25.4417216,12.42518 26.147549,12.7175819 26.871,12.6666667 C27.6602718,12.6739088 28.4182087,12.3536165 28.9692,11.78 L28.9068,12.2075 C28.8930468,12.2853164 28.9136953,12.3653348 28.9632653,12.4263183 C29.0128353,12.4873019 29.0863139,12.5230835 29.1642,12.5241667 L30.5292,12.5241667 C30.7456204,12.5198736 30.9287203,12.3605833 30.966,12.1441667 L31.746,6.87166667 C31.7547291,6.79893854 31.7338711,6.72574144 31.6882403,6.66897035 C31.6426096,6.61219927 31.5761495,6.57676031 31.5042,6.57083333 Z M29.3904,9.57125 C29.2863418,10.4480137 28.5442959,11.1018804 27.6744,11.0833333 C27.2891808,11.119485 26.910811,10.9626079 26.6607114,10.6630447 C26.4106118,10.3634815 26.3202412,9.95891269 26.4186,9.57916667 C26.5397536,8.72291082 27.2667517,8.08996559 28.119,8.09875 C28.501136,8.08170129 28.8715353,8.23496892 29.133,8.51833333 C29.3579342,8.81838483 29.4510492,9.19927961 29.3904,9.57125 Z" fill="#253B80"></path>
                                <path d="M39.5772,6.57083333 L38.0172,6.57083333 C37.8709537,6.57392156 37.7348641,6.64739234 37.6506,6.76875 L35.5524,9.93541667 L34.6554,6.91916667 C34.6005533,6.72876902 34.4296301,6.59705288 34.2342,6.59458333 L32.76,6.59458333 C32.6746288,6.59501981 32.594685,6.63714286 32.5452097,6.7077581 C32.4957345,6.77837334 32.4827785,6.86884465 32.5104,6.95083333 L34.1874,11.9541667 L32.6274,14.2104167 C32.5682882,14.2928736 32.560162,14.4021543 32.6064106,14.492682 C32.6526591,14.5832097 32.7453402,14.6394382 32.8458,14.6379167 L34.4058,14.6379167 C34.5488366,14.6380294 34.6828648,14.5670557 34.7646,14.4479167 L39.78,6.99833333 C39.8375879,6.91817461 39.8470649,6.81236317 39.8046623,6.72297884 C39.7622596,6.6335945 39.6748519,6.57512902 39.5772,6.57083333 Z" fill="#253B80"></path>
                                <path d="M44.6238,3.60208333 L41.457,3.60208333 C41.241885,3.60252755 41.0579391,3.75921982 41.0202,3.97416667 L39.78,12.2233333 C39.7687672,12.2999247 39.7905783,12.3777159 39.8398599,12.4368289 C39.8891414,12.4959419 39.961119,12.5306497 40.0374,12.5320833 L41.6676,12.5320833 C41.8202185,12.529961 41.9489194,12.4160819 41.9718,12.2629167 L42.3306,9.9275 C42.3683391,9.71255316 42.552285,9.55586089 42.7674,9.55541667 L43.7736,9.55541667 C45.8562,9.55541667 47.0574,8.52625 47.3772,6.49958333 C47.552921,5.78138458 47.4042419,5.02106564 46.9716,4.42541667 C46.3478016,3.81153848 45.4879258,3.50999475 44.6238,3.60208333 Z M44.9904,6.61041667 C44.8188,7.76625 43.9452,7.76625 43.1106,7.76625 L42.6348,7.76625 L42.9702,5.61291667 C42.9860532,5.48112031 43.0967853,5.38235477 43.2276,5.38333333 L43.446,5.38333333 C44.0154,5.38333333 44.5614,5.38333333 44.8344,5.71583333 C45.0169947,5.97474842 45.0743444,6.30362091 44.9904,6.61041667 Z" fill="#179BD7"></path>
                                <path d="M54.093,6.57083333 L52.572,6.57083333 C52.4436706,6.57637342 52.3365032,6.67195947 52.3146,6.80041667 L52.2444,7.22791667 L52.143,7.0775 C51.6763006,6.59083689 51.013778,6.35110023 50.349,6.42833333 C48.6283153,6.46390006 47.1906053,7.76845105 46.9638,9.5 C46.8013888,10.3381072 47.0095436,11.206333 47.5332,11.875 C48.0131993,12.4228983 48.7156129,12.7150785 49.4364,12.6666667 C50.228194,12.6751509 50.9890089,12.3548332 51.5424,11.78 L51.4722,12.2075 C51.4611105,12.2848751 51.4827467,12.3634039 51.5317718,12.4237171 C51.5807969,12.4840303 51.652647,12.520513 51.7296,12.5241667 L53.0946,12.5241667 C53.3122044,12.523062 53.4970437,12.3622585 53.5314,12.1441667 L54.3504,6.87166667 C54.3592123,6.79633278 54.3362937,6.72072231 54.2872844,6.66344325 C54.2382751,6.60616418 54.1677262,6.5725355 54.093,6.57083333 Z M51.9792,9.57125 C51.8751418,10.4480137 51.1330959,11.1018804 50.2632,11.0833333 C49.8779808,11.119485 49.499611,10.9626079 49.2495114,10.6630447 C48.9994118,10.3634815 48.9090412,9.95891269 49.0074,9.57916667 C49.1102429,8.71019374 49.8376812,8.05693475 50.7,8.05916667 C51.082136,8.04211796 51.4525353,8.19538559 51.714,8.47875 C51.9553402,8.78613978 52.0522226,9.18525005 51.9792,9.57125 Z" fill="#179BD7"></path>
                                <path d="M55.8792,3.82375 L54.6,12.2233333 C54.5885763,12.3012869 54.6113875,12.3804058 54.6624138,12.4398115 C54.7134402,12.4992172 54.7875549,12.5329409 54.8652,12.5320833 L56.16,12.5320833 C56.3788318,12.5343598 56.5655482,12.3719234 56.5968,12.1520833 L57.876,3.91083333 C57.8900504,3.83376885 57.8692708,3.75437324 57.8193926,3.69454452 C57.7695143,3.63471579 57.6958071,3.60077501 57.6186,3.60208333 L56.16,3.60208333 C56.0242127,3.59185262 55.9028548,3.6876539 55.8792,3.82375 Z" fill="#179BD7"></path>
                                <path d="M4.0014,14.13125 L4.2432,12.5479167 L3.705,12.5479167 L1.1232,12.5479167 L2.9172,1.02916667 C2.91930811,0.99232711 2.93622754,0.957982116 2.964,0.934166667 C2.99483337,0.927301214 3.02676663,0.927301214 3.0576,0.934166667 L7.4022,0.934166667 C8.8452,0.934166667 9.8436,1.235 10.3584,1.83666667 C10.5922278,2.08994975 10.7563155,2.40119218 10.8342,2.73916667 C10.9093517,3.14996153 10.9093517,3.57128847 10.8342,3.98208333 L10.8342,4.33833333 L11.076,4.48083333 C11.2631204,4.57298594 11.4301959,4.70218557 11.5674,4.86083333 C11.7850393,5.11905438 11.9257259,5.43484201 11.973,5.77125 C12.0274452,6.21230034 12.0063341,6.65958482 11.9106,7.09333333 C11.8201146,7.61938996 11.6406701,8.12560002 11.3802,8.58958333 C11.164509,8.94896041 10.8776561,9.25897425 10.5378,9.5 C10.1935308,9.7445538 9.80732002,9.92175358 9.399,10.0225 C8.9319368,10.138367 8.45238203,10.194221 7.9716,10.18875 L7.6362,10.18875 C7.39288251,10.1922858 7.15840587,10.2818797 6.9732,10.4420833 C6.78981798,10.5997159 6.66807686,10.8187577 6.63,11.0595833 L6.63,11.2020833 L6.201,13.9570833 L6.201,14.06 C6.201,14.06 6.201,14.1075 6.201,14.1154167 L6.1542,14.1154167 L4.0014,14.13125 Z" fill="#253B80"></path>
                                <path d="M11.31,4.02958333 L11.2632,4.29083333 C10.6938,7.27541667 8.7282,8.30458333 6.2244,8.30458333 L4.953,8.30458333 C4.64651539,8.30549086 4.38727395,8.53487664 4.3446,8.84291667 L3.6894,13.03875 L3.5022,14.25 C3.48621682,14.3459436 3.51244394,14.4441784 3.57396679,14.5188055 C3.63548964,14.5934325 3.72613321,14.6369616 3.822,14.6379167 L6.084,14.6379167 C6.35326509,14.6407999 6.58318889,14.4412578 6.6222,14.1708333 L6.6222,14.0520833 L7.0512,11.3129167 L7.0512,11.1625 C7.0933202,10.8938302 7.32135989,10.6959232 7.5894,10.6954167 L7.9248,10.6954167 C10.1166,10.6954167 11.8248,9.79291667 12.3318,7.18041667 C12.6006848,6.27596108 12.4329764,5.29574676 11.8794,4.53625 C11.7179616,4.33710474 11.525644,4.16597563 11.31,4.02958333 Z" fill="#179BD7"></path>
                                <path d="M10.7094,3.79208333 C10.6207049,3.76002039 10.529332,3.73617306 10.4364,3.72083333 L10.14,3.66541667 C9.76844158,3.60643143 9.39287461,3.57731317 9.0168,3.57833333 L5.6238,3.57833333 C5.54280413,3.57970099 5.46302807,3.59859383 5.3898,3.63375 C5.22966939,3.7140656 5.11673015,3.8669036 5.0856,4.04541667 L4.3602,8.70833333 L4.3602,8.85083333 C4.40287395,8.54279331 4.66211539,8.31340752 4.9686,8.3125 L6.24,8.3125 C8.7438,8.3125 10.7094,7.28333333 11.2788,4.29875 L11.3256,4.0375 C11.1731007,3.95732831 11.0138722,3.89109467 10.8498,3.83958333 L10.7094,3.79208333 Z" fill="#222D65"></path>
                                <path d="M5.0856,4.04541667 C5.11673015,3.8669036 5.22966939,3.7140656 5.3898,3.63375 C5.46302807,3.59859383 5.54280413,3.57970099 5.6238,3.57833333 L9.0246,3.57833333 C9.40067461,3.57731317 9.77624158,3.60643143 10.1478,3.66541667 L10.4364,3.72083333 L10.7094,3.79208333 L10.8342,3.83166667 C10.9970391,3.8866097 11.1560063,3.95273464 11.31,4.02958333 C11.5343606,3.13757344 11.3127719,2.19061321 10.7172,1.49625 C10.0698,0.752083333 8.8998,0.4275 7.4022,0.4275 L3.0576,0.4275 C2.75367033,0.427825249 2.49536639,0.653020372 2.4492,0.957916667 L0.6396,12.6033333 C0.621020761,12.7124319 0.651275641,12.8242612 0.722142718,12.9084312 C0.793009796,12.9926011 0.897127025,13.0403677 1.0062,13.03875 L3.6894,13.03875 L4.3602,8.70833333 L5.0856,4.04541667 Z" fill="#253B80"></path>
                            </g>
                        </g>
                    </g>
                </g>
            </g>
        </g>
    </g>
</svg>