<?xml version="1.0" encoding="UTF-8"?>
<svg width="78px" height="38px" viewBox="0 0 78 38" version="1.1" xmlns="http://www.w3.org/2000/svg" xmlns:xlink="http://www.w3.org/1999/xlink">
    <!-- Generator: Sketch 51.3 (57544) - http://www.bohemiancoding.com/sketch -->
    <title>sofort</title>
    <desc>Created with Sketch.</desc>
    <defs></defs>
    <g id="Page-1" stroke="none" stroke-width="1" fill="none" fill-rule="evenodd">
        <g id="Desktop-HD-Copy-3" transform="translate(-630.000000, -2458.000000)" fill-rule="nonzero">
            <g id="FOOTER" transform="translate(0.000000, 2268.000000)">
                <g id="Shop-Service" transform="translate(630.000000, 107.000000)">
                    <g id="Group-2" transform="translate(0.000000, 40.000000)">
                        <g id="sofort" transform="translate(0.000000, 43.000000)">
                            <rect id="Rectangle" fill="#FFFFFF" x="0" y="0" width="78" height="38"></rect>
                            <rect id="Rectangle" fill="#FA82A0" x="2" y="2" width="74" height="34"></rect>
                            <g transform="translate(27.240000, 4.375000)" fill="#FFFFFF" id="Shape">
                                <path d="M2.0958,28.4316667 C2.62039544,28.4669759 3.13573093,28.278625 3.51770999,27.9119702 C3.89968904,27.5453153 4.11369728,27.0335823 4.1082,26.5 C4.1082,25.4391667 3.3672,24.98 2.4624,24.7108333 C1.8852,24.5445833 1.5264,24.41 1.5264,23.9983333 C1.52164821,23.8268319 1.58832405,23.6612382 1.71006011,23.5422016 C1.83179617,23.4231651 1.99732028,23.361708 2.166,23.3729167 C2.49776588,23.37691 2.79921395,23.5696628 2.946,23.8716667 L3.8976,23.2620833 C3.495677,22.5132286 2.65447332,22.1241447 1.8339521,22.3075795 C1.01343089,22.4910143 0.411137121,23.2028048 0.3564,24.05375 C0.3564,24.8454167 0.8088,25.4154167 1.9164,25.7479167 C2.5326,25.93 2.9148,26.04875 2.9148,26.5395833 C2.92874791,26.7535732 2.85105953,26.9632673 2.70164987,27.1149117 C2.55224021,27.2665562 2.34563631,27.3454065 2.1348,27.33125 C1.67982644,27.3084764 1.26145994,27.0712725 1.0038,26.69 L0.2238,27.4816667 C0.665719254,28.0797055 1.35926791,28.4316667 2.0958,28.4316667 Z M6.7056,28.4316667 C5.525252,28.409874 4.58412159,27.4241216 4.59980214,26.2260264 C4.6154827,25.0279311 5.58207935,24.0678994 6.76258121,24.0779365 C7.94308306,24.0879736 8.89369761,25.0643062 8.8896,26.2625 C8.86828474,27.4699601 7.8954485,28.436189 6.7056,28.4316667 Z M6.7056,27.3391667 C7.13987976,27.3455906 7.53478815,27.0845924 7.70465468,26.6788832 C7.87452121,26.273174 7.78554917,25.8034739 7.47956974,25.4906174 C7.17359031,25.177761 6.71148127,25.0839942 6.31050822,25.2534027 C5.90953517,25.4228111 5.64947586,25.8216892 5.6526,26.2625 C5.64620686,26.5486108 5.75483524,26.825037 5.95347891,27.0281453 C6.15212258,27.2312536 6.42366603,27.3435438 6.7056,27.3391667 Z M11.7132,23.4520833 L11.7132,22.3595833 L11.5494,22.3595833 C10.9967167,22.3104058 10.4502582,22.5074385 10.0520101,22.8994867 C9.65376208,23.2915349 9.44304164,23.8398935 9.4746,24.4020833 L9.4746,28.3208333 L10.6134,28.3208333 L10.6134,26.6029167 C10.6170109,26.324111 10.7336519,26.059135 10.9358567,25.8703839 C11.1380616,25.6816329 11.4079609,25.5857874 11.682,25.6054167 L11.682,24.4970833 C11.2842427,24.4732593 10.8954067,24.6230542 10.6134,24.90875 L10.6134,24.4654167 C10.5893256,24.1710176 10.7015567,23.8820052 10.9170604,23.6834445 C11.132564,23.4848838 11.4268126,23.3993741 11.7132,23.4520833 Z M14.2014,28.4316667 C13.0221723,28.4055401 12.0849785,27.4179633 12.1034762,26.2209596 C12.1219739,25.023956 13.0892219,24.0666961 14.2686769,24.0781176 C15.4481318,24.0895391 16.3972082,25.065356 16.3932,26.2625 C16.3718537,27.4730606 15.3942797,28.4405398 14.2014,28.4316667 Z M14.2014,27.3391667 C14.6363196,27.3488242 15.0335956,27.0899239 15.2059382,26.6845205 C15.3782809,26.279117 15.2912851,25.8081415 14.9859639,25.4936283 C14.6806427,25.1791152 14.2179476,25.0838509 13.8160092,25.2527464 C13.4140709,25.421642 13.1531287,25.8209806 13.1562,26.2625 C13.1498623,26.5472214 13.2574323,26.8224051 13.4543693,27.0252711 C13.6513063,27.228137 13.9208114,27.3413806 14.2014,27.3391667 Z M18.1014,24.67125 L18.1014,24.19625 L17.0094,24.19625 L17.0094,28.3208333 L18.1482,28.3208333 L18.1482,26.4366667 C18.1223171,26.1409086 18.2297167,25.8491523 18.4403319,25.6430763 C18.650947,25.4370003 18.9421436,25.3387509 19.2324,25.3758333 L19.2324,24.125 C18.7873551,24.0701033 18.3516092,24.2835032 18.117,24.67125 L18.1014,24.67125 Z M21.003,26.2545833 L21.003,25.2095833 C21.2850067,25.4952791 21.6738427,25.645074 22.0716,25.62125 L22.0716,24.5129167 C21.798678,24.5279734 21.531325,24.4305649 21.3301475,24.2427728 C21.12897,24.0549808 21.0110071,23.7927107 21.003,23.5154167 L21.003,22.8741667 L19.8798,22.8741667 L19.8798,26.2783333 C19.8508832,26.8397812 20.0624366,27.3865199 20.4600573,27.7779506 C20.8576781,28.1693812 21.4025667,28.3673084 21.9546,28.3208333 L22.1184,28.3208333 L22.1184,27.2283333 C21.8325792,27.2777382 21.5402454,27.1910646 21.3255724,26.9932692 C21.1108993,26.7954738 20.9977115,26.5085081 21.0186,26.215 L21.003,26.2545833 Z M23.46,28.3841667 C23.8907821,28.3841667 24.24,28.0297254 24.24,27.5925 C24.24,27.1552746 23.8907821,26.8008333 23.46,26.8008333 C23.0292179,26.8008333 22.68,27.1552746 22.68,27.5925 C22.68,28.0297254 23.0292179,28.3841667 23.46,28.3841667 Z"></path>
                                <path d="M10.3404,13.8333333 C10.5114447,14.0031244 10.6078588,14.2357103 10.6078588,14.4785417 C10.6078588,14.721373 10.5114447,14.9539589 10.3404,15.12375 L10.278,15.2029167 C9.92295169,15.5569861 9.35384831,15.5569861 8.9988,15.2029167 L7.002,13.1841667 C6.4482,12.6220833 6.3702,11.9254167 6.7212,11.56125 L6.7914,11.4820833 C7.08563698,11.1822861 7.55376396,11.1517421 7.8834,11.4108333 C8.04122907,11.5076917 8.24538329,11.4704595 8.36011716,11.3238931 C8.47485104,11.1773268 8.46443721,10.967066 8.3358,10.8329167 C7.71069829,10.3421699 6.82277673,10.4033836 6.2688,10.9754167 L6.1986,11.0466667 C5.55891954,11.863368 5.68775266,13.0508111 6.4872,13.7066667 L8.5074,15.7333333 C8.8144151,16.0544963 9.23650741,16.2357492 9.6774,16.2357492 C10.1182926,16.2357492 10.5403849,16.0544963 10.8474,15.7333333 L10.9176,15.6620833 C11.5512711,15.0164485 11.5512711,13.9723015 10.9176,13.3266667 C10.777528,13.1847346 10.550672,13.1847346 10.4106,13.3266667 C10.2583526,13.4498401 10.2275274,13.6723197 10.3404,13.8333333 Z M9.1392,2.85291667 L9.9192,9.72458333 C9.94745465,9.92526394 10.1259411,10.0680986 10.3248,10.0491667 C10.5247151,10.0243984 10.6675094,9.84058463 10.6446,9.6375 L9.8568,2.75 L9.8568,2.69458333 C9.71340096,2.14654074 10.0037948,1.57762911 10.5276,1.38041667 C10.7968908,1.31798532 11.0796345,1.37251014 11.3076,1.53083333 C11.5333335,1.67875111 11.690797,1.91277139 11.7444,2.18 L13.1718,8.39458333 C13.2340582,8.57285963 13.4181863,8.6753627 13.5997702,8.63283194 C13.7813542,8.59030118 13.9026074,8.41627142 13.8816,8.22833333 L12.4152,2.02166667 C12.3253793,1.56470151 12.0581072,1.16366849 11.6736452,0.908987792 C11.2891832,0.654307098 10.8198985,0.567419961 10.3716,0.667916667 C9.45093622,0.944223473 8.90778025,1.90721908 9.1392,2.85291667 Z"></path>
                                <path d="M16.7052,10.9279167 L18.3354,2.68666667 C18.5228402,1.79610551 18.0026928,0.909325584 17.142,0.652083333 C16.1836335,0.401569141 15.2064073,0.986047947 14.958,1.95833333 L13.1484,8.2125 C13.0992322,8.3435941 13.1268817,8.49161202 13.2199143,8.59534279 C13.312947,8.69907356 13.4555501,8.74088622 13.588752,8.70348965 C13.721954,8.66609308 13.8231145,8.55584353 13.8504,8.41833333 L15.66,2.14041667 C15.8057359,1.56159731 16.3825307,1.20893345 16.9548,1.34875 C17.4498298,1.50170211 17.7454684,2.015599 17.6334,2.52833333 L15.9954,10.7854167 C15.9703199,10.9141067 16.0147886,11.0466014 16.112055,11.1329912 C16.2093214,11.2193811 16.3446086,11.2465414 16.466955,11.2042412 C16.5893015,11.161941 16.68012,11.0566067 16.7052,10.9279167 Z M12.6024,18.8445833 C11.3632638,18.8873989 10.1598385,18.4192013 9.26639311,17.546696 C8.37294773,16.6741908 7.86560794,15.4717193 7.86,14.2133333 C7.83354242,14.0307084 7.67916837,13.8953794 7.4973,13.8953794 C7.31543163,13.8953794 7.16105758,14.0307084 7.1346,14.2133333 C7.13404144,15.6696288 7.71397355,17.0642117 8.74241607,18.0797045 C9.77085859,19.0951973 11.1603242,19.6452143 12.5946,19.6045833 C12.7368775,19.6258169 12.878247,19.5606589 12.956124,19.437955 C13.0340009,19.3152511 13.0340009,19.1576655 12.956124,19.0349617 C12.878247,18.9122578 12.7368775,18.8470998 12.5946,18.8683333 L12.6024,18.8445833 Z M11.331,12.4241667 C11.2688733,12.628166 11.1429077,12.8060439 10.9722,12.9308333 L10.8942,12.9783333 C10.4805886,13.2622303 9.91857416,13.1523978 9.6384,12.7329167 L8.0784,10.3579167 C7.6416,9.69291667 7.6962,8.99625 8.0784,8.70333333 L8.1564,8.65583333 C8.6868,8.33916667 9.1392,8.57666667 9.6072,9.26541667 L10.98,11.2683333 C11.0325035,11.3494744 11.1147531,11.4059811 11.2084835,11.4253048 C11.3022139,11.4446286 11.3996665,11.4251699 11.4792,11.37125 C11.6419664,11.2576668 11.6868055,11.0336187 11.5806,10.8645833 L10.2,8.86166667 C9.5448,7.89583333 8.7336,7.46833333 7.7664,8.07 L7.665,8.13333333 C6.87523085,8.80381843 6.76720018,9.9957821 7.4232,10.80125 L8.9832,13.17625 C9.49013591,13.9281457 10.4988884,14.1258529 11.2452,13.6195833 L11.3232,13.5641667 C11.6393772,13.3455673 11.8688068,13.0201226 11.9706,12.6458333 C12.0040401,12.5199716 11.9687831,12.3855637 11.87811,12.2932398 C11.7874369,12.2009158 11.6551231,12.164702 11.53101,12.1982398 C11.4068968,12.2317775 11.3098401,12.3299716 11.2764,12.4558333 L11.331,12.4241667 Z"></path>
                                <path d="M13.7256,13.6591667 C12.8970362,14.1819967 12.4086635,15.1159255 12.4464,16.1054167 C12.4418167,16.3050266 12.5932761,16.4727263 12.7896,16.4854167 C12.8860919,16.4919014 12.9810775,16.4585797 13.0530294,16.3930035 C13.1249813,16.3274272 13.1678068,16.2351492 13.1718,16.1370833 C13.0946985,15.3013377 13.5626004,14.5119761 14.3262,14.1895833 C14.680731,14.0607566 15.0593261,14.0147539 15.4338,14.055 L15.5274,14.055 C15.6541936,14.0818693 15.785479,14.0380423 15.8718024,13.9400282 C15.9581258,13.842014 15.9863726,13.7047033 15.9459024,13.5798198 C15.9054323,13.4549363 15.8023936,13.3614527 15.6756,13.3345833 L12.891,12.70125 C11.5884,12.345 11.3856,11.8541667 11.6274,11.03875 C11.6971219,10.7215764 11.9507373,10.4798633 12.267,10.4291667 C12.4937937,10.3856756 12.7266063,10.3856756 12.9534,10.4291667 L13.086,10.4291667 L17.3058,11.4583333 L17.3916,11.4583333 C17.4722996,11.4949557 17.5441668,11.548987 17.6022,11.6166667 C17.9889525,12.1574361 18.1333613,12.8385499 18,13.4929167 C17.7192,16.8258333 16.1904,18.9 12.54,18.8683333 C12.3418402,18.8683333 12.1812,19.0313763 12.1812,19.2325 C12.1811548,19.4349436 12.3405849,19.600276 12.54,19.6045833 C16.6194,19.6045833 18.3978,17.2295833 18.702,13.55625 C18.85138,12.7208505 18.6506646,11.8600722 18.1482,11.18125 C17.9699021,10.9715464 17.7287933,10.826942 17.4618,10.7695833 L13.281,9.78 L13.0938,9.78 C12.7744067,9.71679944 12.4459933,9.71679944 12.1266,9.78 C11.5603898,9.90153811 11.1070026,10.331232 10.9488,10.89625 C10.6056,12.0758333 10.9488,13.0020833 12.7272,13.485 L13.7256,13.6591667 Z"></path>
                            </g>
                        </g>
                    </g>
                </g>
            </g>
        </g>
    </g>
</svg>