<?xml version="1.0" encoding="UTF-8"?>
<svg width="78px" height="38px" viewBox="0 0 78 38" version="1.1" xmlns="http://www.w3.org/2000/svg" xmlns:xlink="http://www.w3.org/1999/xlink">
    <!-- Generator: Sketch 51.3 (57544) - http://www.bohemiancoding.com/sketch -->
    <title>visa</title>
    <desc>Created with Sketch.</desc>
    <defs></defs>
    <g id="Page-1" stroke="none" stroke-width="1" fill="none" fill-rule="evenodd">
        <g id="Desktop-HD-Copy-3" transform="translate(-713.000000, -2458.000000)" fill-rule="nonzero">
            <g id="FOOTER" transform="translate(0.000000, 2268.000000)">
                <g id="Shop-Service" transform="translate(630.000000, 107.000000)">
                    <g id="Group-2" transform="translate(0.000000, 40.000000)">
                        <g id="visa" transform="translate(83.000000, 43.000000)">
                            <rect id="Rectangle" fill="#FFFFFF" x="0" y="0" width="78" height="38"></rect>
                            <g transform="translate(18.000000, 6.000000)">
                                <rect id="Rectangle-path" fill="#F7B600" x="0" y="22" width="41" height="4"></rect>
                                <rect id="Rectangle-path" fill="#1A1F71" x="0" y="0" width="41" height="4"></rect>
                                <path d="M16.1641469,8.22 L11.9481641,18.78 L9.25269978,18.78 L7.17926566,10.3466667 C7.04103672,9.83333333 6.97192225,9.61333333 6.55723542,9.39333333 C5.93520518,9.02666667 4.89848812,8.73333333 4,8.51333333 L4.06911447,8.22 L8.4924406,8.22 C9.04535637,8.22 9.52915767,8.58666667 9.66738661,9.32 L10.7732181,15.48 L13.4686825,8.29333333 L16.1641469,8.29333333 L16.1641469,8.22 Z M26.8077754,15.3333333 C26.8077754,12.5466667 23.1447084,12.4 23.2138229,11.1533333 C23.2138229,10.7866667 23.5593952,10.3466667 24.3196544,10.2733333 C24.6652268,10.2 25.7019438,10.2 26.8768898,10.7133333 L27.3606911,8.44 C26.7386609,8.22 25.9092873,8 24.9416847,8 C22.3844492,8 20.587473,9.46666667 20.587473,11.52 C20.587473,13.06 21.9006479,13.8666667 22.8682505,14.38 C23.9049676,14.8933333 24.1814255,15.26 24.1814255,15.7 C24.1814255,16.4333333 23.3520518,16.7266667 22.6609071,16.7266667 C21.3477322,16.7266667 20.587473,16.36 20.0345572,16.0666667 L19.5507559,18.4133333 C20.1727862,18.7066667 21.2786177,18.9266667 22.4535637,19 C25.0107991,19 26.8077754,17.5333333 26.8077754,15.3333333 Z M33.5809935,18.78 L36,18.78 L33.9265659,8.22 L31.7149028,8.22 C31.2311015,8.22 30.8164147,8.51333333 30.6090713,9.02666667 L26.7386609,18.8533333 L29.4341253,18.8533333 L29.987041,17.24 L33.3045356,17.24 L33.5809935,18.78 Z M30.6781857,15.04 L32.0604752,11.08 L32.8207343,15.04 L30.6781857,15.04 Z M19.8272138,8.22 L17.6846652,18.78 L15.1274298,18.78 L17.2699784,8.22 L19.8272138,8.22 Z" id="Shape" fill="#1A1F71"></path>
                            </g>
                        </g>
                    </g>
                </g>
            </g>
        </g>
    </g>
</svg>