<?xml version="1.0" encoding="UTF-8"?>
<svg width="78px" height="38px" viewBox="0 0 78 38" version="1.1" xmlns="http://www.w3.org/2000/svg" xmlns:xlink="http://www.w3.org/1999/xlink">
    <!-- Generator: Sketch 51.3 (57544) - http://www.bohemiancoding.com/sketch -->
    <title>vorkasse</title>
    <desc>Created with Sketch.</desc>
    <defs></defs>
    <g id="Page-1" stroke="none" stroke-width="1" fill="none" fill-rule="evenodd">
        <g id="Desktop-HD-Copy-3" transform="translate(-796.000000, -2458.000000)">
            <g id="FOOTER" transform="translate(0.000000, 2268.000000)">
                <g id="Shop-Service" transform="translate(630.000000, 107.000000)">
                    <g id="Group-2" transform="translate(0.000000, 40.000000)">
                        <g id="vorkasse" transform="translate(166.000000, 43.000000)">
                            <rect id="Rectangle" fill="#FFFFFF" fill-rule="nonzero" x="0" y="0" width="78" height="38"></rect>
                            <path d="M20.848,15.36 L17.848,23.76 L16,23.76 L13,15.36 L14.704,15.36 L16.924,21.708 L16.948,21.708 L19.144,15.36 L20.848,15.36 Z M27.268,23.016 L25.876,23.82 L23.32,23.82 L21.928,23.016 L21.928,18.504 L23.32,17.7 L25.876,17.7 L27.268,18.504 L27.268,23.016 Z M23.572,19.104 L23.572,22.416 L25.624,22.416 L25.624,19.104 L23.572,19.104 Z M32.776,19.164 L30.712,19.164 L30.712,23.76 L29.068,23.76 L29.068,17.76 L30.424,17.76 L30.712,18.252 L31.564,17.76 L32.776,17.76 L32.776,19.164 Z M35.62,15 L35.62,20.172 L35.644,20.172 L37.504,17.76 L39.388,17.76 L37.24,20.436 L39.748,23.76 L37.84,23.76 L36.28,21.636 L35.62,22.464 L35.62,23.76 L33.976,23.76 L33.976,15 L35.62,15 Z M41.992,21.396 L41.992,22.44 L43.684,22.44 L43.684,21.396 L41.992,21.396 Z M41.74,23.82 L40.348,23.016 L40.348,20.94 L41.74,20.136 L43.684,20.136 L43.684,19.164 L40.948,19.164 L40.948,17.76 L43.936,17.76 L45.328,18.564 L45.328,23.82 L44.536,23.82 L43.684,23.328 L42.832,23.82 L41.74,23.82 Z M51.88,20.808 L51.88,22.956 L50.488,23.76 L47.128,23.76 L47.128,22.356 L50.236,22.356 L50.236,21.432 L48.52,21.432 L47.128,20.628 L47.128,18.564 L48.52,17.76 L51.76,17.76 L51.76,19.164 L48.772,19.164 L48.772,20.004 L50.488,20.004 L51.88,20.808 Z M58.432,20.808 L58.432,22.956 L57.04,23.76 L53.68,23.76 L53.68,22.356 L56.788,22.356 L56.788,21.432 L55.072,21.432 L53.68,20.628 L53.68,18.564 L55.072,17.76 L58.312,17.76 L58.312,19.164 L55.324,19.164 L55.324,20.004 L57.04,20.004 L58.432,20.808 Z M65.212,22.356 L65.212,23.76 L61.624,23.76 L60.232,22.956 L60.232,18.504 L61.624,17.7 L63.82,17.7 L65.212,18.504 L65.212,21.372 L61.876,21.372 L61.876,22.356 L65.212,22.356 Z M61.876,19.104 L61.876,20.136 L63.568,20.136 L63.568,19.104 L61.876,19.104 Z" id="Vorkasse" fill="#BF3137"></path>
                        </g>
                    </g>
                </g>
            </g>
        </g>
    </g>
</svg>